/* XPM */
static char *_64405fad8d34581e00dee9e33e914a4T2CkwbLQXT8iFSNV[] = {
/* columns rows colors chars-per-pixel */
"64 64 222 2 ",
"   c None",
".  c #7B66BB",
"X  c #7C77BA",
"o  c #7C18C4",
"O  c #7B2BC9",
"+  c #7A36CD",
"@  c #7C25D5",
"#  c #7D2AD9",
"$  c #782AD8",
"%  c #7E3ED9",
"&  c #7A36D8",
"*  c #7D3BE7",
"=  c #7D3DE9",
"-  c #7A35E3",
";  c #3159C2",
":  c #167DC4",
">  c #1B7DC5",
",  c #1874C5",
"<  c #247DC1",
"1  c #2279C5",
"2  c #2679D4",
"3  c #357BD6",
"4  c #226FC4",
"5  c #356EE1",
"6  c #347DE2",
"7  c #544FD5",
"8  c #7C43DC",
"9  c #7D53D3",
"0  c #7B58D6",
"q  c #7950C9",
"w  c #4B6CD3",
"e  c #7E62CC",
"r  c #7A67C6",
"t  c #7C77C6",
"y  c #7D67D9",
"u  c #7D44E4",
"i  c #7E4AE3",
"p  c #7D45EC",
"a  c #7D4AED",
"s  c #754AE8",
"d  c #7E53EE",
"f  c #7D55E7",
"g  c #7D4DF1",
"h  c #7E52F2",
"j  c #7D5DF6",
"k  c #6650EB",
"l  c #467DEC",
"z  c #4A79ED",
"x  c #5D6CF3",
"c  c #587AF2",
"v  c #5371ED",
"b  c #7E64F9",
"n  c #7E6DFA",
"m  c #7A67F8",
"M  c #617CF5",
"N  c #7D74F6",
"B  c #7F7DF6",
"V  c #7E75FC",
"C  c #7E7EFE",
"Z  c #777EFE",
"A  c #7069EC",
"S  c #865BBB",
"D  c #9075B8",
"F  c #E07BBE",
"G  c #8A1AC5",
"H  c #821AC5",
"J  c #822DC5",
"K  c #8425CD",
"L  c #8332CD",
"P  c #8125D4",
"I  c #822CDC",
"U  c #8227D8",
"Y  c #8030DE",
"T  c #813AE6",
"R  c #823DEA",
"E  c #8534E3",
"W  c #8359CA",
"Q  c #8343DB",
"!  c #8841D8",
"~  c #8354D4",
"^  c #825CD6",
"/  c #9A48DF",
"(  c #A84ECF",
")  c #8266C8",
"_  c #8364DB",
"`  c #807CC5",
"'  c #8143EB",
"]  c #804CEC",
"[  c #8247E6",
"{  c #8452ED",
"}  c #9455EE",
"|  c #814CF0",
" . c #8254F2",
".. c #835CF6",
"X. c #924EEE",
"o. c #8063F6",
"O. c #8165FA",
"+. c #816CFA",
"@. c #856AF4",
"#. c #8074F6",
"$. c #817EF7",
"%. c #8174FC",
"&. c #807EFE",
"*. c #8C7BFC",
"=. c #937EF9",
"-. c #977AF6",
";. c #8C6BF1",
":. c #BA76ED",
">. c #A37EF4",
",. c #A264EC",
"<. c #D86CCD",
"1. c #DE74CA",
"2. c #E674C5",
"3. c #E67DC4",
"4. c #E97DC4",
"5. c #E47DC9",
"6. c #E574C6",
"7. c #C17CE8",
"8. c #7F98B5",
"9. c #7D81B4",
"0. c #72BBBA",
"q. c #1583C4",
"w. c #1A83C6",
"e. c #1D81CC",
"r. c #198CC3",
"t. c #2E87D0",
"y. c #3885E4",
"u. c #3890E2",
"i. c #408AD9",
"p. c #7C85C8",
"a. c #7B95C9",
"s. c #7093CF",
"d. c #7CA7DA",
"f. c #7CB7D9",
"g. c #7CADCF",
"h. c #4985EC",
"j. c #5986EE",
"k. c #5897E9",
"l. c #5D83F3",
"z. c #5288F1",
"x. c #7E9BE2",
"c. c #7E82F5",
"v. c #7E8BF4",
"b. c #7E82FD",
"n. c #7E8BFC",
"m. c #7589FB",
"M. c #7E9CF5",
"N. c #7E93FB",
"B. c #7D9BF9",
"V. c #7B91F6",
"C. c #6B8BF1",
"Z. c #7EADED",
"A. c #7CA8E6",
"S. c #7CB3E6",
"D. c #7DBBE5",
"F. c #7EB4EA",
"G. c #7DBAEC",
"H. c #7EA3F3",
"J. c #7DA9F4",
"K. c #58A9ED",
"L. c #7EDDC3",
"P. c #79DACA",
"I. c #7CCCDD",
"U. c #7BC4D7",
"Y. c #7DDBD3",
"T. c #7CD4D8",
"R. c #7AE4C5",
"E. c #7CE0CC",
"W. c #7DC3E5",
"Q. c #7DCBE1",
"!. c #7FC3E9",
"~. c #8490B8",
"^. c #84BBB5",
"/. c #EA83BF",
"(. c #86C9BB",
"). c #8A97D4",
"_. c #8992C9",
"`. c #B896C9",
"'. c #80B2CD",
"]. c #86A8DD",
"[. c #9D9AEC",
"{. c #8080FE",
"}. c #8182FE",
"|. c #8082FE",
" X c #818BFC",
".X c #8585F6",
"XX c #9686F6",
"oX c #819BF4",
"OX c #8193FA",
"+X c #8196F8",
"@X c #AF87EE",
"#X c #B685EA",
"$X c #A182F4",
"%X c #AC96E4",
"&X c #82A6EB",
"*X c #94A8ED",
"=X c #81B3EB",
"-X c #82BBEC",
";X c #84BCE6",
":X c #81A4F3",
">X c #82AAF3",
",X c #89A6F5",
"<X c #84B3F1",
"1X c #91A8F1",
"2X c #C78AC4",
"3X c #DE93C7",
"4X c #DB80C6",
"5X c #E482C5",
"6X c #E382CA",
"7X c #E787C5",
"8X c #E591C3",
"9X c #87D8C9",
"0X c #81C9D8",
"qX c #82D5D6",
"wX c #82DBD3",
"eX c #83D2DB",
"rX c #89D6D4",
"tX c #80E2C8",
"yX c #82C4E6",
"uX c #82CAE2",
"iX c #80C4E8",
"pX c #89CAE1",
/* pixels */
"( G G G K P U I # # @ @ P U I E T R p i i i i 8 8 8 Q [ { _ j  .d ] a p u [ R ' ] | |  . .....b O.O.O.O.O.b j ..d a ] i u [ 7 4 ",
"<.X. .o.O.n +.V n V V V V V V V C V V C C V V V V C &.&.&.C B C C C C V V C &.&.&.b.{.{.{.C {.{.C C b.b.{.{.{.|.|.|.{.&.{.{.z < ",
"7XXXOX.Xn.n.n.n.n.n.b.b.b.b.b.C b.&.b.C C C &.C C b.$.&.C C C C C C C C C &.&.b.{.C &.&.&.{.C &.&.C {.&.&.&.&.&.&.&.&.&.{.{.z < ",
"5.;.V V V V V V V V V C C C C C C C C C Z C C {.&.C C C C C C Z C C C C C &.&.&.C b.&.&.&.C {.&.&.b.{.&.&.&.&.&.b.b.n.b.n. Xj.< ",
"5.=.C b.C C C b.b.C b.C C C C C C C C C C C C &.b.&.C C C C C C C C C C C C &.b.C {.&.{.{.{.n.|.{.n.|.{.{.{.{.{.&.&.&.V %.%.c < ",
"5..Xb.B $.b.C &.C C &.Z Z C C C b.C C C C C b.b.C C C C C C C C C C C C b.b.b.b.b.&.&.B &.&.&.V %.&.&.&.&.{.&.&.{.&.{.C n.n.l.< ",
"5.*.C Z C C Z b.C C b.C C C C C C C C C C C C &.{.V b.C C C C b.C C C C C C {.{.&.&.C &.&.C b.&.&.{.{.{.&.&.&.{.&.&.&.&.%.V x < ",
"5XXXb.b.b.C C C C C C C C b.C C C b.C C C C b.b.b.n.|.n.n.n.n.n.n.n.|.$.&.&.&.C b.C &.&.&.{.{.|.n.|.|.|.|. X|.{.{.{.{.&.&.&.M > ",
"3X*XoXOX X Xb.C C Z b.C C b.C C C C b.C C C &.C b.V V V V n V n n V &.C C C &.C b.{.C C C &.&.&.%.%.&.V %.&.&.&.&.&.&.&.{.&.M e.",
"<.} o.O.+.V C C C b.C C C C C C C C C C C C C C b.b.b.C C b.C b.b.b.b.C C &.&.C &.C b.{.b.b.{.C {.{.&.&.&.&.&.&.&.&.&.{.&.{.M e.",
"6XXXb.b.n.C b.b.b.C C C C C C b.C C C C C C C &.C C C C C C C C C &.V b.n.b.b.{.{.&.&.&.&.&.&.&.&.&.&.{.&.&.{.&.C &.&.&.&.&.j.> ",
"3X1X>X:X+Xn. Xb.b.b.b.C C b.C C b.C b.C b.C b.b.C C b.C C C C C &.C b.C V &.&.C C b.&.&.&.&.C b.&.{.{.&.&.{.&.&.{.&.{.&.&.&.z.e.",
"1.}  ...O.+.%.V V C C b.Z b.&.C C C {.C C C &.b.C b.C C C C C C C C C C C C &.{.{.C &.&.&.&.C C {.&.{.&.&.{.&.{.{.b. Xn. X Xz.e.",
"5.$X{.{.C C C C b.C b.b.C C C C C C C C C C C {.{.C C C C b.C C C C C C C C &.C &.b.C C &.&.C C &.C &.{.&.C {.&.&.&.V V %.%.z 2 ",
"5X>.{.C B Z C &.C C C V V C C C C &.C C b.b.b.b.b.|.C b.b.b.Z B b.b.b.b.n.n.{.n.n.b.n. Xn. XN.N.oXH.J.Z.&XZ.F.S.D.;XG.G.G.G.K.t.",
"<.*XZ.F.D.W.W.W.W.W.W.W.!.W.Q.I.T.T.T.Y.Y.qXqXI.eXI.I.uX0XiXW.D.!.G.S.A.x.x.x.x.d.].A.f.f.S.d.g.a.p.t ` t t . . . . X D _._.oXw ",
"p j d a p = * * T T = = = = - - $ $ O O J J J L L + + & q q . s.2X/ [ a d d d d d a a p p [ p ] { g h h h h g g g a g p p p p p ",
"&.&.C C V C V &.&.&.V &.&.%.%.%.n m b O.o.o.@.O.O.b O.j h h k : F >.b.C C C b.b.b.C b.b.C C b.b.b.b.b.b.b.&.{.b.C b.b.b.b.{.{.&.",
"b.{.&.{.C &.b.C &.b.C &.&.&.&.{.b.C C {.&.C C B $.$.$.$.|..Xj.r.F $Xb.C C C C C Z C C Z C b.C C C C C C C b.C b.C C C C C C b.C ",
"C C b.&.C &.C &.&.C {.b.&.&.&.&.B C {.&.&.C C C {.&.{.&.&.%.v q.4.$X{.Z C C C b.C C b.C C C Z C C C C C {.C C C C C C C C &.b.&.",
"b.b.C &.C &.C &.&.C &.C C C C &.&.C b. X X X X X X X|.|.|.b.h.q.5X[.|. Xn.C C C C b.C Z C C C C {.C C C C b.C C C C C C b.C C b.",
" X|.|.{.b.&.&.&.&.C b.&.&.&.{.{.&.&.&.V V V %.V %.%.V $.B m.h.e.5X$X X X X|.{.&.C C C C b.C C b.C C C C b.C b.b.b.b.b.n.n.b.n.n.",
"%.&.&.&.&.C {.b.{.b.C b.&.&.C &.&.&.&.{.&.&.&.&.{.&.{.&.{.b.y.e.6.,.O.+.%.V &.b.Z C C C C C Z n.b.b.C C C C C C V C C V &.V V %.",
"C C b.C C C C &.C &.&.{.&.&.b.&.&.&.{.&.&.&.&.&.&.&.{.{.&.m.y.e.5.-.&.&.C C C C C C b.C C C C V C C C C C C C C C b.C b.b.b.{.C ",
"{.|.n.|. Xb.{.{.{.b.C &.&.&.{.{.&.{.&.{.&.{.{.&.{.&.&.{.b.m.u.t.4.=.b.C b.C C C C C C Z {.C C C C C C n.b.b.b.C b.C C C &.C B C ",
"V &.V V V C C &.C &.{.{.{.&.{.&.&.&.{.C &.&.&.&.{.&.&.&.B m 5 2 4.XXC C C Z C b.C b.C C C C C C C C C V V C C C C b.C b.C C b.V ",
"{.C b.b.{.|.n. X|.{.{.C &.&.&.{.&.&.&.{.&.{.{.&.{.&.&.&.|.Z 3 3 5.=.C C C C C b.Z C b.n.n.n.n.n.n.b.n.b.b.b.C b.C C B C C C &.b.",
"C {.b.b.C V V V &.&.&.&.{.&.&.&.&.&.{.&.&.&.{.&.&.&.{.|.|.n.u.y.4.=.C C b.C C C C C C V V V V V V V V C C {.&.b.C C Z C C C b.&.",
"C &.&.b.C &.C &.&.C C &.&.&.&.{.&.&.&.&.&.{.&.&.{.&.{.&.%.n 5 3 5.=.b.C C C b.C C C C C C C C b.b.C C C b.&.C C C C C C C b.C &.",
"&.b.C C C &.C &.&.C C C &.&.{.&.b.&.&.&.&.&.{.&.{.{.|.|.n.b.t.3 5.=.C b.C Z C C C B C Z C C C &.b.C C C &.C b.C C C C C C C &.b.",
"b.C b.b.C &.&.&.&.C b.n.{.{.&.&.&.&.&.&.&.{.&.&.&.C C {.C b.y.i.7X1X>X:X:XH.H.M.oXM.N.B.N.N.N.N.n.N.n.N.N.N.n.N.n.n. Xn.b.n.b.b.",
"iXiXiXiXW.iXiXW.I.T.Y.P.tXtXrXpX;X<X>X>XJ.Z.=XF.F.D.=X=X=X>Xu.w `.U.U.f.f.g.'.'.'.0X0XT.wXqXY.wXY.Y.wXY.Y.Y.Y.tXE.qXqXeXpXpXuXiX",
"2XT % % % % 8 8 8 & $ o H H L ! ~ _ _ y y y y y 0 9 ~ ^ ^ _ y # I I E T T R p = = - # # # # @ @ O O J J J K P H P U I # * T s t.",
"8X[.v.B V V %.n n n n n n V n V %.V C V C V V V &.V V V V C V V &.&.&.C C &.&.C C &.C C &.V &.&.V &.#.&.&.%.&.&.V &.V V n +.x > ",
"6.,.n %.C C Z &.C Z C {.C C C C b.C C C b.C C C B &.b.&.{.C C &.C &.C C C &.&.C C &.&.&.&.C &.{.{.{.|. X Xn.n. X|.{.$.&.%.&.M : ",
"4.>.b.b.b.C C C C C C b.C C C &.b.C C b.C C C C b.C {.b.{.b.{.n.{.n.{.{.b.b.{.C C &.b.C C {.$.&.&.B V &.%.%.%.%.&.&.&.&.&.&.l.: ",
"4.>.B &.V b.n.n.b.b.&.C C C C b.b.b.C b.C C C C &.C C &.&.C V V %.&.&.C &.C b.&.C &.&.&.C {.&.&.C {.&.{.{.&.{.{.&.C &.&.&.&.c > ",
"5XXXn.b.|.n.V C C C &.b.C C Z C C C C C C C C C C C C C C C b.b.&.C C &.C &.{.C &.&.&.b.{.&.{.&.{.&.&.&.{.{.n.N.B.B.N.M.M.oXk.r.",
"2.-.#.V &.V C C C C C C C C C C C C C C b.C C C C &.&.b.C {.&.b.b.C C b.C C C b.&.&.&.b.C b.{.{.{.b.n.{.b.|.b.#.O.O.N +.#.#.M < ",
"4.-.C b.Z C C C C C C b.C C C &.C C C C C C C C C C b.&.&.b.C &.b.&.&.b.{.{.b.{.{.{.b.{.b.C {.&.&.&.%.&.C %.%.%.&.&.V %.#.n x , ",
"4.XXn.b.C b.Z C C C C b.C Z C C C C C C b.b.b.b.n.n.n.n.n.n.n.n. XN.OXN. Xn.n.|.{.&.&.{.&.&.{.&.&.{.&.{.{.&.{.&.&.{.&.&.{.b.l.: ",
"4.-.V C C C C C C C b.b.n.n.n.n.b.b.C c.B C B B V #.N N N #.N V V +.O.+.%.%.%.%.&.&.&.C &.&.&.&.&.{.&.&.{.&.{.{.{.&.b.b.n.V.k.w.",
"4.-.b.b.b.n.n.b.b.b.b.V V V V V C C C C C C Z C C C C C C C C &.C &.{.C &.C C C &.&.&.C }.&.&.&.&.{.&.&.&.C {.&.{.{.&.&.%.n x > ",
"4.=.C Z Z V V C C C b.C C C C C C C C C C C C C C b.&.&.C &.&.b.&.b.&.b.b.C {.&.&.&.&.C &.&.}.&.b.&.&.&.{.&.&.C &.&.{.{.&.&.M > ",
"5.XX{.&.C b.C C C C C C C Z C C b.C b.Z C b.b.b.n.{.b.n.b.{.b.b.b.{.C C {.C b.b.&.&.C C &.C &.&.&.C &.&.&.&.&.{.C b.n.|.|.n.l.w.",
"7X,X,XoXOX Xn.n.b.Z b.n.n.b.b.b.C B &.Z C &.C V V Z V &.&.C C C b.C {.&.b.|.|.|.|.|.b.n.b.{.}.}.&.b.{.&.&.&.&.{.{.b.V B C &.M w.",
"1.@.@.+.+.%.%.V b.c.B &.%.C b.V.N.N.N.N.N.N.B.B.M.H.J.J.F.D.W.I.I.0XpXpXiX-X=XG.-XG.<X<X<X>X:X+X X|.|.|.n.b.n.n.n. X Xn.n.b.l.w.",
"4X:X:XF.=XF.G.G.G.W.W.D.S.S.S.F.W.I.T.T.E.R.R.R.R.R.P.P.P.      D S S W W ) e e r t t p._._.).].].].&X&Xd.d.d.d.d.].].;XyX-XJ.> ",
"Q 9 0 0 e e e ) ~ E E R ' | = - $ $ $ o o o o o o o H H H G o ; 1.X. .|  .h h g g g p p * = R ' ' | g | g p a a p p p = = i f & ",
"&.V V V #.+.%.+.%.%.&.&.&.%.C V %.V n n O.O.m b b j @.@.B c.k.r.2.;.%.&.C C b.b.b.b.b.b.b.C b.b.&.&.b.C C {.C b.C C C C Z V V C ",
"C &.C C &.C &.&.}.{.&.{.&.&.&.b.&.&.&.{.{.&.{.&.C $.N n b j v , 7X-.B C C b.b.b.b.b.b.C C b.Z C b.C C C C b.C C C C C &.C C C C ",
"C b.&.C b.C &.C &.&.{.&.C &.&.C {.&.&.&.{.&.&.&.&.b.b.b.b.V z : /.XXC Z C C C C C Z C C C C C C C C C C &.C b.C C C C C b.b.C b.",
"{.C B C C C C &.&.&.b.&.C &.{.C {.&.&.&.&.{.&.{.{.{.&.%.&.V l q.7X$Xb.B b.Z C C Z C C C C C C C C C C C C b.b.b.n.n. X|.b.$.C &.",
"v.OXOXOX+XOXOX X X X{.|.{.{.&.b.&.{.&.b.{.|.|.&.&.|.&.&.|.OXh.q.8X%Xv.v.v.V.OXOXOXOXN.n. Xn.n.b.|.b.b.b.&.C {.Z N N N N B c.c..X",
"V %.n n O.n #.#.%.&.&.&.&.&.&.&.{.&.&.C {.&.&.&.$.{.|.n.n.c.h.q.3.#X.Xc.c.c.B B B B c.b.c.c.B b.|.v.b.c.|.{.b.|.b.n.n.b.&.C B V ",
"n. Xn. Xb.|.|.|.b.|.|.{.{.&.n.|.|.{.{.&.&.&.&.{.{.&.&.V V n v , 5.7.*.n n n n n n n n n V %.V V V V V C C B V &.V C V C n.N.N.N.",
"n %.%.%.%.&.&.&.$.V &.&.&.{.V &.&.&.&.{.&.&.{.&.&.&.}.}.{.n.h.q.5.7.*.&.&.C C C C C C C C C C C C C C C b.C C C Z C C C V V n n ",
"&.C b.b.C b.V &.&.C &.&.&.&.{.b.{.{.&.&.{.&.&.{.&.}.&.{.&.V l q.6X7..Xb.n.C b.b.Z C b.C C C C C b.C C C C C b.C b.C {.b.b.C C C ",
"b.&.&.C C &.&.&.b.C C C &.C C {.|. X|.{.{.&.&.{.}.}.|.|.{.{.l : 6.:.%.C C Z n.b.n.n.n.n.n.n.b.{.Z &.b.C b.b.n.C b.b.n.|.b.b.C {.",
"{.b.{.{.C b.&.&.&.&.C b.C &.&.C V %.&.&.{.&.{.{.}.%.%.%.&.&.l e.5.:.&.&.V C V V n V V V V V V b.C b.C C b.V C V V C V V V C &.C ",
"C C &.C &.C &.&.&.&.{.{.&.&.&.{.&.&.&.{.&.&.&.&.&.&.}.&.|.|.l > 4.@Xn.b.n.C C C C C C C C C C C &.C C C b.C b.n.|.n.b.C {.{.C &.",
"B {.C b.c.|.b.b.{.&.b.{.{.&.{.{.{.{.{.{.&.&.{.&.}.&.}.}.|. Xh.r.7X@X Xb.C C C b.Z C C C C C C $.b.C C C &.&.C V V V C C b.B C {.",
":X:X:XM.M.oXoX+XOX X.X|.{.{.&.&.V &.&.&.&.{.&.&.&.V &.&.V V h.e.6X@X.X XN.n.n.n.m.B.B.J.Z.Z.Z.Z.S.S.F.F.F.S.S.Z.D.F.=X=XF.=X>XH.",
"L.L.L.L.(.^.^.^.(.(.9XwXqXqXeXeXuXiX;XiX-XW.W.Q.uXuXpXyX;X=Xk.7 ( *XG.W.Q.Q.I.U.f.g.a.p.t r ) W W ~ ~ 9 9 q q r . t X 9.8.8.~.0."
};
