/* XPM */
static char *f84f9ebfbe0b4487d37d255c9db3d4c3pfMYajqutcar5uGi[] = {
/* columns rows colors chars-per-pixel */
"64 64 96 2 ",
"   c #876038",
".  c #8C623A",
"X  c #91663D",
"o  c #94683F",
"O  c #976A40",
"+  c #9B6E42",
"@  c #9E7145",
"#  c #A27346",
"$  c #AB7446",
"%  c #AB7847",
"&  c #A47649",
"*  c #AA7648",
"=  c #A6794A",
"-  c #AB7C4D",
";  c #B37D4C",
":  c #B97E4D",
">  c #AD7E50",
",  c #B27E50",
"<  c #B5814E",
"1  c #B9814F",
"2  c #AE8251",
"3  c #B48352",
"4  c #BC8552",
"5  c #B48956",
"6  c #BD8B55",
"7  c #B48B59",
"8  c #BD8D59",
"9  c #BE915B",
"0  c #BE9560",
"q  c #C28753",
"w  c #C38C56",
"e  c #C88E57",
"r  c #C58F58",
"t  c #C88F58",
"y  c #C5925A",
"u  c #C9945C",
"i  c #C7985E",
"p  c #CB985D",
"a  c #C99A5E",
"s  c #CB9B5F",
"d  c #CC9B5F",
"f  c #C49561",
"g  c #C69661",
"h  c #CC9661",
"j  c #C59B64",
"k  c #CB9860",
"l  c #CA9B60",
"z  c #C89862",
"x  c #CA9B63",
"c  c #CC9B61",
"v  c #CD9B61",
"b  c #CC9E61",
"n  c #CD9E61",
"m  c #CC9F62",
"M  c #CD9A65",
"N  c #CC9C64",
"B  c #CD9F65",
"V  c #CE9E64",
"C  c #CD9F69",
"Z  c #CF9F68",
"A  c #D09F69",
"S  c #CCA063",
"D  c #CDA163",
"F  c #CDA164",
"G  c #CEA265",
"H  c #CEA365",
"J  c #CEA367",
"K  c #CFA466",
"L  c #CFA467",
"P  c #CFA168",
"I  c #CCA26A",
"U  c #CFA668",
"Y  c #CDA46B",
"T  c #CEA56B",
"R  c #CFA56E",
"E  c #D0A369",
"W  c #D0A769",
"Q  c #D0A76A",
"!  c #D1A26E",
"~  c #D0A66C",
"^  c #D0A86A",
"/  c #D1A96D",
"(  c #D1AA6D",
")  c #D2AB6F",
"_  c #D2A970",
"`  c #D3AB71",
"'  c #D2AD70",
"]  c #D3AD72",
"[  c #D4AC73",
"{  c #D4AD73",
"}  c #D4AE73",
"|  c #D4AF73",
" . c #D6AF78",
".. c #D5B176",
"X. c #D5B277",
"o. c #D6B279",
/* pixels */
"X o O # & - < 2 - - * # # # # # # # # + @ + + + + + + # $ ; 4 r g w 6 4 3 3 5 4 q w g f f l M M B Z P P Q Q ~ J P R U P P ~ ! O ",
">  .[ ] X.) ) ) ] ) / U U U P J B c u h c c h h p u u t u u u h u u e e w r u g p p l h l c c c n n n J n J J Q U P D a y l M . ",
"- X./ Q H ^ ^ H H H J J n n l c a p p p d y p u p u u u p u u p u u h d u g u t t y r t t t u y u u y r r u y y y l D D U P ! . ",
"& [ J l y y i D H D D D n n c c c a p p p p u u u u t u t t t t t w w q w w t t e u u p u d u d d a d c a a a D F F D J J U ` X ",
"# P u 4 - - < 6 y y y 6 6 w 6 6 6 w 6 w w r y y u u p u u u u u u u u u u u u u p u u p p d p d p a d n n n n n D D n n D U { O ",
"& ] B i 6 y a D D J D D P n n l d d d y y y w w 4 q 4 q q w q q q w q w w w w t w w r r r r w y y y y y u a a u a i l a n J | o ",
"@ s 6 - = < 5 6 9 y y y y y y y r r w w w 4 6 w u u u p u u u u d u u u u u u u d y p p p p u d c v d d a a u i i n a n P Q | O ",
"= X.^ P J J H D D D n D d n n d c c a d u y t q 4 4 4 4 3 4 4 4 : 4 : 4 q w w t w t e r y r r y y y u y a d a i a i a n a l B . ",
"& X.H D l a a a i i i i y i y y y y e t w y t w 6 r r t u u u u d d y u u r r w w 8 w w w y y a u a l n n D J D l J D l H U ..O ",
"= X.Q U Q U H H D d n n a d d d c d d p p y y w w 4 4 3 : : ; ; ; $ : : 3 4 q w w w y y e w y w w 8 w w y w y y y y y y D D / O ",
"o < $ & - < 5 y a a c d d a a p a y u y y u p u u u u r u u u u u p d y y u u u u u u p d y u d d d d a a n n D D D D J J R ] O ",
"o i y 9 9 i l l D n D D c n d d d h p d p t w w w r w w w w w w w w w w w w q q q w 6 w q 6 w r w i a u l n n B D D l H J ^ ] X ",
"+ / J n D D n D l a a a p p p p u a d u p p p p p u u u u u u u u u u t u u u u p p d p c h d c d h d u i a l a n J D J a S y   ",
"+ X./ Q H H l H J n J n d a p p u i r u p u u u u u u u p u u u u u u p u t t w w w t t r e e u u p c l B B J J U U U U ^ / U X ",
"O ` B l g i a l J J Q U J P B E P U A M A B B M c B M M M n M J h h h v p h h c M B B B A A J B Z Z l j f h f f i y g g B ! A X ",
"X Y j f 9 7 7 5 5 5 2 2 2 2 2 - > > - - - - - - - - - = = 3 3 3 , * + o X X X X X X X X X o X .     .   . .   .       .   o O . ",
"3 - - & = = = = & * = = * = & # + O o o o o + o O O + o o X . X . Y I Y I R Y U H j y j 0 9 f g j x x j x x j g g u y 8 8 w 8 8 ",
"J B n n B B B J J P J P H U Q / / [ { / ` / ] ] ] [ ] ] ] X.X.@ o X.H U H H F H Y H R H U P U J J B M l a h h M B B B P P Z B B ",
"a a d c c a d d d y u a l p a c n n B U U H H H H H H H H / X.# X D w 6 8 3 6 9 9 6 6 s a i i u d u a c n l n l l n l n d c l c ",
"u y e w r t u p h a a u a p a a n l l l n n D n a D D D D K ] o o X.U S i l D D D S l J S J D n n B n n n n l i y q r w w r u y ",
"d u a a p a a d p c c n J l n n l n D H J D D D H D D H P ^ ` X @ X.D D s S S S D D D s a D n D l c a a a w w u a u d c d d a p ",
"u u a y y w 6 4 r 6 < 4 4 6 y l i i i 6 6 8 9 9 9 y y i n U R . @ X.U D D S y 9 6 6 y s D l d a u a a l u a a i y d a a a h h p ",
"3 3 4 4 6 6 w y a a i w y i y y y 9 9 9 9 i i i i i i a U / C   + ] U U H D D D D S S S n a a i a y y y w w 6 w w < - ; ; < 3 < ",
"w w w 6 w 6 8 w y a a D l g i a s i i s D s l s D l J l J / j   X y 6 6 8 i i i y i i y 9 y y y w y 8 6 y a i y y w w y y w w w ",
"n d c c n l n a u y w 6 y a n n D D D D s i i y i i i a H ] y . $ o.U H U l n a D i a a a a a a l a l d y u y u a a d d c l n c ",
"r y w t w t w y u a l n n n n a S s D D H H D D H J H H H ] f   @ ] H n i i i i n n J D D D D J n n n n l l l l p p u i t q y t ",
"p p d u y p d u a u a d i w y a i i y y y 9 y i i y 8 9 g P 6   = X.U H D D n l a a a a a a n n l l l l l a p u u y y u p p u d ",
"p p a d p p p d l a d u a n a d s D D s a D l n n a i i J / y   & o./ H H D l J n D n n l D l l a d u a p p p p u g l n l a p a ",
"4 6 6 w w y y y y i c n n n n n D s D S S i i y i y 9 i l ^ 0   o h w d a J n J J P D J J J P P J B n n c a u r w w q 4 3 4 w w ",
"c c a n c c l a c c n B n B J P D D D D D D J U D D H I U ] I   # ~ Q Q U U Q J J E d u t y q w q q q w w w r p l c n c c c c a ",
"J J Z Z J P J J J Q Q Q / / Q U U U H H D H H U U U U U U / I   =  ./ ~ J B J Q E Q B J J B U / / ` / ` / / / / ~ ! P Q E E P E ",
"3 3 3 ; - ; 2 3 > - - = = > 2 5 9 i j D j j j j 0 D 0 I U ] j   + & # o X X . X X O o + @ @ # # # # # # # # @ + + + + + # $ - 3 ",
"O - # @ # + + # + + @ + + + + O o o X X X X X X X X X X X o + # & # # $ $ $ & $ * * * & & & & # # @ # @ # # # & - > - 2 2 5 5 X ",
". Z x l M B J Z J A J A A A B c c h h h u h u h h h h h h h h h h h h h c h h h h h h h h u h h h M c A ~ E / / R / / Q / / { O ",
"O Z l l i d u d d c a h h u p p u p h u u u u t t t t t t t g t u u u u t u u t u t u p u u u p h p l p u u h p a n U U U ~ X.+ ",
"O [ U J D u y u u u u u u u t e e e q q e e w q q w q q q q : , : : : ; ; q w r t u e t t h h u p p h p d u u y w 6 3 $ 4 y J X ",
"+ { Y P d J d n n d u d p p u u t u t u t t t t t w e e e e e r t t t t t w q 4 q 1 ; $ % = $ 1 w w w y a l n n B n D n n U [ O ",
"+ R c a p a d u d d d u p p u u u u t u t t u t t t e w e e e e t w e e t t t t u t t u u u y q w r w w w w w y y y i a n U { X ",
"O h t q 1 6 t u p d u d a p p p u u u u g t t t g t t t t t t t t t t t w w q q w q q e y e u u u p u u u u d a n n n D J J ` O ",
"X t : $ $ ; : 4 w u a u w w w q q w w q q w e e q t t e e e e e w t w e t t t u t p y u u e t u u r u u a d a a l a d d n J { + ",
"+ M h e t t t t y y e r u u u u y t t q q 4 1 1 : : * # $ $ & * $ ; , : q q w t t r r t t e r u p y p p n a n n n n D J H Q [ + ",
"X : $ $ ; : q e t u p p p u t u u u u u y u u t h t t t e e e w w q 4 , , : : , : ; : 4 q w r e t r y p a u a a c n l a a n ~ + ",
"O q q q q t t h u y y r r y u u u u e e t t e t t t t e e t e t t t t t u t t t u t u r u e t w w w w r r r w y w 6 3 ; : q g X ",
"@ M h h h g M h d d p p p p y u t u u u p t u t t t t t t t t t t t t t t t t u t u t u t u u u y y y y w w t r u y 6 6 w y M o ",
"O : $ @ $ ; : 4 w p p d u u u u y e e y q t t w q e q e e e e e t t r t t t t t u t u u u u u g p u u p d d d c n n c c c B _ O ",
"# M r h h M n B n n c u d u u d u d u u u p u u h h h h h h h h h h g g t h t h u u u h h h h h p u u p u c d c B n c a p p ! O ",
"& ! Z P B c l h B B n Z n n n Z M A c M A M A c M M M M g r r 8 6 4 ; , , ; * * ; ; , : : 4 q w u p v v B n n P A J E Q ~ ~ [ O ",
"& M l 9 y 8 8 8 4 > - # # + + # # # # # # + + o O o X X       . . . . . . . . . . . .     . . . X o + @ @ # + + + o + + * - 4 X ",
"# + O o . X . X O + & ; 3 3 - - $ @ + @ @ @ @ @ @ + + @ & - 5 @ = I P U U R R U U R l g g 9 y 8 w 8 8 5 3 6 3 3 3 3 ; - - - # & ",
"B B M B A B M h t y c M P D J Q Q Q / U / / / ` ] ] X./ ~ Q A O > o.` ^ U H ^ H R U U R / / U ^ P M n d l a B n B A B h c c M B ",
"u u u u u u c c Z B n n n n n D D J J U R U J U K ^ J J J J h X - X.Q H U P D D S n l S B l a a c n n a u d u u a u u y r u u u ",
"u r u u u u u y u u y y y t y i i a a a a a n n n d J J R [ _ X + / a 4 - = - 6 9 9 9 6 y i a a l d u a y y y y w y u d c p p u ",
"w w w w y w w y y y u p a n n D D D D J D D D D D n n n J ^ ~ X + ..U Y H J H D D D D D n n S i w y i i l l g i y w y w r w w w ",
"u d u a u d d a a d a p c d n n S n l D D a n D D D D D H / ` O O ` R F s a i i i y s D l s S l i i y w w w 6 q w y w w u p a a ",
"d a a l l a p u y a p p a n a n D D D D D n D D D D D D H ^ Q . . I U U H D D D d D s l D l s l n a i u i l l h g a i p p p p l ",
"w w q y y y u u p p a d a a d c a i n a a D a D a a i w i a h .   i / H D s s D D d D D n D n n n l a a u d d l c l u y w w w w ",
"d u p p p p p p u u u u u u i l d d a l a i a J D D D J A _ x X . M ) H S D d D l J l D D D D D n l p i u p u y y p i p p a p p ",
"y u u y u p y y u c l a a a i d a a a a a D a a i i 6 5 w l r . . B / Y D D n S D l D i D a l l l l p i i a a l a a a p y u p u ",
"p p p u p p p d l l l p l a a u i d d D D D D D D D J D J B g X . w B i 9 9 y y i y i i i a a i i y y y y y u u u r y t u y u y ",
"u y t y u y y d u a d p a a l D J a D a a l a D n D P U U [ ` . o P / P S a i i i i i i a i i a i a l p p i d a p p p p p p u p ",
"u u u d u u u d d h a l c n n J D D D D d D a D a i y w y u u . O ` U D s D D D J n n n n D l J n n n n l l l u c l l h p p p u ",
"n Z Z n Z Z n n n n n n c n n n n J D a D D H H J J H H R / R . X / U H D H H H H U U J J n D J P B B B B M Z n c M l l c c n M ",
"A A Z A ! E A Z E ~ / ~ Q U Q E Q U K J J U H Q ^ ^ H K P / Q . O R ) U / U U / / / P P B I I j j f y 9 0 9 w f g f j g h M A A ",
"o X X X . . . X O + @ # & & - - 2 3 5 5 5 5 5 5 7 7 7 7 0 j l . . 3 2 - & @ @ + + . . . .   . . . X . O . O . .       . .   . X "
};
