/* XPM */
static char *_736d3ce98114ae6da37519dfee32483KnwR4tGWyXj1fpMY[] = {
/* columns rows colors chars-per-pixel */
"64 64 145 2 ",
"   c #312723",
".  c #362B27",
"X  c #382A25",
"o  c #3A2E29",
"O  c #37312E",
"+  c #3C322E",
"@  c #3D3532",
"#  c #3F3835",
"$  c #43342E",
"%  c #4B372F",
"&  c #563A2F",
"*  c #423631",
"=  c #4A3730",
"-  c #433936",
";  c #4B3B34",
":  c #443C39",
">  c #4A3E39",
",  c #533D34",
"<  c #5C3F33",
"1  c #523F38",
"2  c #623425",
"3  c #6F3E2D",
"4  c #723F2D",
"5  c #47403D",
"6  c #4B403C",
"7  c #554037",
"8  c #5A4136",
"9  c #54423A",
"0  c #5C453A",
"q  c #5F483F",
"w  c #74412F",
"e  c #7C422E",
"r  c #634335",
"t  c #6D4534",
"y  c #63463A",
"u  c #65493D",
"i  c #6C4B3C",
"p  c #764532",
"a  c #7B4531",
"s  c #754A36",
"d  c #7D4A35",
"f  c #734D3C",
"g  c #7B4E39",
"h  c #76503E",
"j  c #7D513D",
"k  c #5E4941",
"l  c #674C41",
"z  c #6A4D40",
"x  c #724F40",
"c  c #755141",
"v  c #7C5441",
"b  c #834631",
"n  c #834B35",
"m  c #8B4C35",
"M  c #844E38",
"N  c #8C4F38",
"B  c #924E37",
"V  c #944F38",
"C  c #84533C",
"Z  c #8C533C",
"A  c #8E583F",
"S  c #93533B",
"D  c #9B543B",
"F  c #95583F",
"G  c #9C593F",
"H  c #A2563D",
"J  c #A3593E",
"K  c #A85B3F",
"L  c #845642",
"P  c #8A5740",
"I  c #875842",
"U  c #8A5940",
"Y  c #8C5A41",
"T  c #8D5843",
"R  c #8D5C42",
"E  c #8C5E46",
"W  c #925740",
"Q  c #905841",
"!  c #945A42",
"~  c #905D43",
"^  c #915F45",
"/  c #925E44",
"(  c #935F45",
")  c #9B5A40",
"_  c #9C5A40",
"`  c #9C5B40",
"'  c #9E5A40",
"]  c #9F5B40",
"[  c #9F5B41",
"{  c #995C41",
"}  c #995C42",
"|  c #9B5C42",
" . c #9F5E42",
".. c #9F5F44",
"X. c #915F48",
"o. c #A05C41",
"O. c #A05D42",
"+. c #A25D42",
"@. c #A35D42",
"#. c #A05E42",
"$. c #A15E42",
"%. c #A35E43",
"&. c #A45E42",
"*. c #A45F43",
"=. c #AB5E42",
"-. c #946045",
";. c #956146",
":. c #966146",
">. c #966247",
",. c #9E6145",
"<. c #9D6146",
"1. c #946049",
"2. c #986348",
"3. c #996348",
"4. c #9A6348",
"5. c #9A6449",
"6. c #9B6449",
"7. c #9C6549",
"8. c #9F684B",
"9. c #A46044",
"0. c #A66245",
"q. c #A46146",
"w. c #A46246",
"e. c #AD6144",
"r. c #AA6447",
"t. c #A36549",
"y. c #AB6548",
"u. c #AB674B",
"i. c #AC6649",
"p. c #A16A4D",
"a. c #A36B4E",
"s. c #A6694C",
"d. c #AE6849",
"f. c #AC6B4D",
"g. c #AE6D4E",
"h. c #B06346",
"j. c #B46748",
"k. c #B36A4C",
"l. c #B36D4E",
"z. c #B96B4B",
"x. c #AE6E50",
"c. c #B06F51",
"v. c #B27152",
"b. c #B97555",
"n. c #C17452",
/* pixels */
"0 8 7 ; ; , 9 0 9 ; - - 6 5 : 5 : : - @ : @ + : - : 5 6 : : : : : : > ; ; $ $ * ; = , < u ; @ - 5 9 l i f i h h j v j v j h f u ",
":.:./ R R U -.R / -.-.E :.E u 5 : - u i f i i f c T L L L P T Q O.i.k.i.y.y.i.r.y.*.y.y.k.x.> : 9 a.8.1.^ A :.5.5.8.5.>.8.8.2.>.",
":.R Y Y / -.R R Y C C C C I E 6 - L ) Z S N n N B B Z m S S F B Q ` o.o. .@.@.@.O.` @.q.k.q.i # i p.5.2.-.A -.Z R A R -.2.>.2.2.",
"A U A Y R / :.5.:.-.U R :.U U 7 : ,.{ ) | S S ) F Q S S D W D )  .O.o.o.@.@.@.@.@.@.| *.y.) f # v 5.1.R C t j g j j j j C C A -.",
"g C j C A C A C A R E -.1.R C 7 - | !  .G F G G { F S ` ) ) F S F S S D G S D D G S D @.q.) i : v 1.R C C C g g g s g j C C A j ",
"C j C A C j j C C C C I R C j 7 - T S G S B Z S F B m N N S S B N N B S S S S S S S D o.O.D i : h >.^ C j j s g s s s j j C C C ",
"C j C j s s j C C C C C A A C 8 + Z F G Z m m m m S m S B N B N m m N N B S S V S B S | W N i @ h :.C C j g s s s s s s j C C C ",
"C C C s j s C C C j j C A :.C 8 + Z S F m m n m m m N B Z B S N m n n N B m D S S N V H ` S l - v R j s C j s s s s s s h j C C ",
"C C R C j A C C C C C C R R I 7 + C S F m n n n n N N B B S S m n n m N N S S m N m S G ` G i : j :.C s j g s s s s s s g j C C ",
"C C j C C j C A C C C C R R R & @ ! Z F m m n n n m m Z S S B N N m m m S n b m N N m F O.F f > h :.C g g g s s s t s g g C j C ",
"C j C C C j j C I C C R :.:.-.; @ S Z S N m m N m m m N S B B N N N N B m m N m N m S D | ! c : h ^ C g s s j s t t s g j C C C ",
"C R C C A A j R -.-.:.:.8.2.5., @ P S ) G F F S S S B Z S S S Z B S S S N m Z S S S S ` ) S c @ h R C g s s s s s s g g C C C C ",
"E ^ -.^ ^ ^ C C C C A C A :.8.7 * P ` ) S F S S F F F D F G G ) W D D G O.{ G F Z Z S O.` F l : i R I j j j j j j h j j A A A R ",
"R A R A A A A A C j j s j C 8.* - x O.S B S D S N N N m S D D ` ` O.q.*.q.G D S b n Z W @.q.9 k u -.U U j R R A C A A -.-.:.-.R ",
"-.:.:.>.-.-.-.-.R A j h j v 9 * - - x Y ! P Q Q Z Z Z S O.q.y.q.q.q.y.q.r.q.G Z Z Z ` ,.,.E - : 6 R -.U R R >.2.-.2.2.2.:.8.-.-.",
"v h h i u 7 7 = - # # # @ * - * > * - * @ + $ + + . . O + @ % ; ; , % = ; * @ + * - - : - - : - - 6 0 y i h h I j j v j j v v j ",
"5 # > 7 y u f h x L L T T L L T E T Q L L L L v L M v g c u ; - @ 6 t h j h t s t s i t y r 8 r 8 8 8 9 7 7 + 5 5 $ $ @ @ $ @ # ",
"* E d.t.q.{ ,.q.O.@.*.u.u.u.x.%.x.x.c.c.c.k.u.k.v.v.u.u.u.k.t.$ + -.2.G A C A C C C C C M d C C C C C d C Z C F F A Z Z A v 7 @ ",
"8 v.w.,.` { q.q.o.` W ` *.*.O...o.O.u.*.*.@.*.| | | W W } t.s.8 $ F A -.C A A Z A C n j j g j s n d d d C M M C Z Z C C A ^ 5.@ ",
"i b.u.t.,.,.,.) ` W W ` O.| %.| | O.| | @.o.o.W N W N P T | ,.8 $ A Z A C d n j n g d d d d d d C C C A A A A Z Z A A A A -.-.7 ",
"i c.u.| F | | | O.W m W O.| ) ) W o._ _ | | _ T M W m N U | | < = G Z A M d d d d d d d d p d p d d d C Z Z C M d C n Z R A ^ 7 ",
"i s.| W ` { o.` W W P B n ) ) ) _ _ _ _ | Q W N M Z N M S | ,.< + A M A M M M d d d d s p d p w d d C n Z M M d n d d C Z A A 7 ",
"i u.| N Z ! ` ) W m P N W ) ) ` o.W _ W W W N b S N N N Z | | r X A n A Z d g d n d d d s d p p p d p C C Z M d d d d n Z A A 8 ",
"i t.) P N N N N P N n m P W ` N _ o.o.W W P n n P Z Z N W | ,.t   A n g C n n g M n d d d d p s d p d n m C M M d d d n A -.{ 7 ",
"y t.| N M M N M N M M M M N N W W W W W W N N S V W N N Z | 6.s   A d n A M d g M d M d d d d d d p d d Z Z Z M C n n Z A ,.:.8 ",
"y t.| N M n n N M M M M M M M M n P V W W N T P P N N W S | t.s   g s n A d d n d d d d s d d d p p d M M N Z C C C M Z A { R 7 ",
"i s.) Z M n n d M n M M M M M n m L m n a N Q V W N P V Z | | a   A d M A g M d d d d d p d d d d d d M C M M N Z Z Z Z A A G 7 ",
"i 8.| P M d M M M M M m M d n n d 4 n 4 d a T W V P V P Q | O.<   A M Z A M M M d M d d w d d d d d d M M Z M Z Z Z Z Z <.-.w.6 ",
"i t.Q Q Q S Z Z N M N M n d d d 4 4 4 M W M b N P S W W | O.t.< o -.Z A A N Z Z A C C Z M M M M M j n M C Z Z d Z F F :.d.,.w.6 ",
"< t.W N Z Q | | W W N N M n n g N L M d W W W ! W _ ) | q.t.i., + 2.A G -.A A A C C Z Z A C C C A A Z C C Z F :.2.,.q.,.a.,.w.5 ",
"- x ( ( | | | ) | | | / / | | Q W W T ! W o.| | t.| | | 6.x.t.* + -.2.5.-.A A A A A A A A Z A C A A A Z C C C G <.2.2.8.<.g.R # ",
"# # : ; ; 0 y u i f f s f f t f f f f p g g L L M v L M L g , * = % i h i 0 8 7 = 7 9 0 8 0 y i h f f s s j s h j j v j h 0 5 # ",
"j j j j h i y 0 7 7 7 $ @ @ @ * * = * = @ $ $ + @ @ + o o o $ $ $ + = 6 7 r i h j j f h i 6 @ @ 5 @ * 6 6 7 7 8 r t h h h h j j ",
"} F } D S Z Z Z n N s m A A t - 6 < C d d d d n S D o.H G J D G J G J D S S D G J D G D D F i @ 5 j A n n b s e n A S { F { F { ",
"F S S A S A m n C n B C N S { = $ | S m b b m m B V D D D D V D D D D S B N N B B B D D S S A @ 8 F Z n n N n Z Z Z n N Z S S F ",
"m M B m m n n a e n M m F ,.{ 7 % r.o.S m N V V S D G G ` H H H G G S N n b b b b B B B S S D 7 0 Z A S A Z n b d b d e n m N N ",
"Z N m n n w w w w d d n N S A r % O.q.D b m m b m B B V V D D V B B m e e e e b e m B B N D G 0 y S F m S N n e a a a n n a m N ",
"m S S n e w w w d e e n m A S r = O.O.B b b b b b m B B D V H H D m b e b b b e b b b b b Z D y y A A m m n a p a a a a m n n n ",
"S D F m m w w w w w w d n N Z i % O.G B b b b b b b m b 2 V H H J B b b b e e e e m b m m D G u y A Z N n n e a e p e d n n n N ",
"Z F D S n w w w w w p e d N N i % O.D B b b e b m m B m B V H H G B b e w e e e b m m m m N Z r 8 S F m Z b n w p a n a m n n m ",
"m S S S n w 3 w w w w a g m Z t = q.G m b b b B B V V V B V V H H B b e w e e e b b b b m N D r 0 S D Z m n a e a b n m N N m n ",
"M m N n p w 3 w w p w a a n A i = O.G B m m m B B B B V B B B V B b e e e e e e b b b m m B G u u Z F Z n n b d n n n N N m m m ",
"B m m b e w w w e a a e e C A s $ O.O.V m m B B B B b m B D V D B m b e e b n e b b m b m B D 8 u S F n m n b n n n n n n d C n ",
"N S Z N n a a w n n n e n B m s * 9.9.D D B m m b b b n B V H H H D m m b m m m b b b m m S F 8 i F S m m Z Z m n n b a p e n n ",
"S D S S S N N n N Z n C M F G j # ,.9.9.H D V B b b m S D H i.=.H D B m B B S m m b m B B F D 6 i F F Z Z B Z m n d p w e n m n ",
"G 9.O.O. .F Z N m m n n d Z F i # F e.J V V B B B S G J H H H H D B m B S S D D D B B S D D ,.- 0 :.{ G F F S N Z n n n m Z D F ",
"q.9.t.9. .{ G  .G F F C Z C j 6 5 0 R G J G G G G G *.e.i.e.t.| G { ,.G e.e.J D D B S S S G A 5 6 :.{ S Z S S F S F Z S F G O.9.",
"Y E I v c i q 9 6 5 6 5 - + O # # 5 # - 5 5 % 6 $ ; , 9 : - : # $ 5 6 5 6 0 q i h i i u i 7 - - : 6 z i h h f g j C A C R ^ -.R ",
"- - 5 6 1 y z i i x x x f i i x l z l y 9 1 1 , = = $ ; ; * @ # - > l x x x x y y l l < l 3 x 4 c f h f s u t r < ; = ; 9 : : : ",
"# 0 6.t.s.u.t.t.t.s.c.c.c.b.c.c.v.c.O.| ( | | ( 6.| / | 1.L : - > _ W V B V _ D o.h.h.h.h.h.h.h.e.q.O.D V D D S B N m B G ) 9 - ",
"- p.5.{ X.| | | | O.s.u.t.t.u.O.O.t.| P T P C P T P / T M ! k : l V m m V V B V =.h.=.h.=.h.=.h.q.H H  .H H H H S S B S | *.E # ",
"- p.t.{ / *.( W / ) q.X.| | t.g P | ! W M M M Z Z C M C C U z : l V B m m B B B V ` =.V o.` H V V B B B m B D V D J D D h.=./ # ",
"- s.*./ W O.M P T | | | | | O.q.W ) | W M L W W Q Z Z Z d L c : y S S B B B b B V B V V D D D B m m m b m m V H G H H H h.=.| : ",
"- x.! M g ! d W | | | ! | | | E W W ! | ) W W ! Q Q :.| P N L : l o.D S V V B B B B B B V D D B B m m m m B V H H H H H h.=.O.- ",
"- c.t.W Q S W ` | | | | ! | ` O.W W ) W W W ) | M | :.O.W T I : k y.D D V V B m B B B V V D D V B m m B B V H H H H H H e.=.*.- ",
"- c.x./ Q W | ( | ! Q ! | | Q %.W Y Q ) W W ! ` O.| W W W { T : 1 =.D o.V V V B B V V H D H H H B B B V H H H H H H H @.h.=.t.: ",
": x.x.q.| | | ! | | ! ! ! W o.| O.Q Q W W Z P Q W | S Q 6.| X.: > ` D D V V V V V D H D H H H H H B V D H H H H H H H K h.h.=.> ",
"- x.x.O.| | ! | | W W ! W | | ! | | | Z M M g M Z C Q T / U { - : | B b B m V V V H H H D D H H H H H H H H =.H V H H K =.=.h.- ",
"* x.c.O.W W W ! ! W ! W W ! ! Q W W W ) | ! | | | | ) Z U ! 6.- : W m m m b b V D V V H D V D H H H H K V D H H K H H H =.h.j.* ",
"* x.c.u.! W ! ! | W W | | | ! W T W W W Q | ` | | | Q Z T Z W : : Q m m b b b B V V V V B B V D H H H H H =.D H K H K K =.h.j.- ",
"@ x.c.x.t.| | | 6.| | W o.| ! W T | Y S Q | ,.) | :.Q Q ! Z P : - S B m m m B m b B B B m B V D H =.=.=.e.h.e.=.h.h.=.h.h.z.z.1 ",
"@ X.b.c.c.c.c.u.t.u.u.q.%.6...O.{ { | 6.t.t.s.i.t.| { | X.T I : : X.V N V D D D O.D B m V B m G H =.h.=.=.=.o.=.=.=.=.=.=.z.n.> ",
"O 9 v.b.z.v.v.c.c.v.c.c.x.u.a.t.t.s.c.c.v.c.f.x.s.t.6.| 6.p.z # - v ` ` =.=.h.=.=.O.) V m V V W *.=.h.=.y.h.y.=.N h.h.h.=.k.X.* ",
"O @ : > 1 1 1 1 0 9 < 0 l l l l i i f f x f f c c c x x i 0 : @ @ - y g L Q P T T d f i y 1 1 ; 1 9 0 y k k 9 6 : : 6 : > : : * "
};
