/* XPM */
static char *_42a02c21a8641528511f2b671d23e5dazRU6oZjGmvcTdBw[] = {
/* columns rows colors chars-per-pixel */
"64 64 84 1 ",
"  c #4C463F",
". c #4F4941",
"X c #534D45",
"o c #575047",
"O c #575148",
"+ c #5C554C",
"@ c #5F584E",
"# c #5F5A51",
"$ c #60594F",
"% c #645D52",
"& c #685F54",
"* c #676055",
"= c #696156",
"- c #6D655A",
"; c #6F685D",
": c #70675B",
"> c #736A5E",
", c #6F6A60",
"< c #746E63",
"1 c #786F61",
"2 c #767165",
"3 c #797265",
"4 c #7B7466",
"5 c #7B7467",
"6 c #7C7466",
"7 c #7D7566",
"8 c #787368",
"9 c #797468",
"0 c #7A766A",
"q c #7E7768",
"w c #7F7769",
"e c #7C776A",
"r c #7C776B",
"t c #7D786B",
"y c #7E7A6D",
"u c #7F7A6D",
"i c #807768",
"p c #817969",
"a c #80786A",
"s c #827A6B",
"d c #807B6D",
"f c #837B6C",
"g c #817C6F",
"h c #837D6F",
"j c #847C6C",
"k c #857E6F",
"l c #867E6E",
"z c #877F6F",
"x c #837E70",
"c c #837E71",
"v c #847F71",
"b c #878070",
"n c #868071",
"m c #868072",
"M c #898170",
"N c #888172",
"B c #8B8473",
"V c #888374",
"C c #888375",
"Z c #8A8474",
"A c #8A8576",
"S c #8C8776",
"D c #8E8877",
"F c #8C8778",
"G c #8D8878",
"H c #8E8979",
"J c #8F8A7A",
"K c #918977",
"L c #908B7A",
"P c #928C7A",
"I c #938D7B",
"U c #938E7C",
"Y c #948E7D",
"T c #97917E",
"R c #96907F",
"E c #969180",
"W c #989381",
"Q c #9A9482",
"! c #9B9683",
"~ c #9E9885",
"^ c #9E9986",
"/ c #A09A87",
"( c #A29D89",
") c #A6A18D",
/* pixels */
":-::-+XX +-;%-=*>=za773>76-X++OO+3YYFd=&&+.XX++#&<29&X o+<3waz-:",
"=-:-&+%+oX==%=&>>=Mp76:=--=$O+&2UJvydCS9>--%O+OXXOO...X&3pi33ai&",
"#&&%@-w>=O->>>>>1>>i>>=>>1>$%-ZExxy03yvZLQJ>+%&#%#+X+=3vz73<>7z%",
"+@%&*U~Z1-$%>3>3>7>>:>>>>>-$-mJw0,828899ym);##&&%++;3SZi331<17k&",
"%1w2ZLxhb<>&$-11>>>>::===$*>hJvy8,82<2<28yE*%#&%@+>dSzi<<<>31a7=",
"%>PLht222ww<>::>->>>:=ija>hBbtyw88,82<2,89E-&+%#O;dvd8<<<1222k>%",
"+%kJh99223w>>77i>2>>->BK>3at9222888<<<2<2yRx<%#+%1Ud88<<<<<23k>%",
"O+NZ992<2231<>73>>>:->B2377122<<<<<8822<8wW-=+%+<Qv8<12<<<22wk-$",
"+#Jy80823322<<>>>:>>:7b22<2<<2<<<22222288vJ#%++%0E08,8<<2<228v=%",
"O-!yyybbZbh21><1i>>>:>i7>>2;;<;<<<228288yJ9%+%+=yFy<8,282222tb%$",
"+rJyy#&-;*8t<1<17>1>>--7>2<>;<>2<<289;-wbR9&+++-yC082,<<12<8hk+%",
"%Um0-,;;;;&29<<1i>117>>7t51>><32<<,29;;ybJ;@%==3mm0888<<<228v7+%",
"%Fm8<,<<<<;;k13a1>17>>=pj73>223>283359tbJ2>$%--vyy8,922<<228bdo$",
"%Jb8<22<<21>wva>$>1>1>=2kj727577922whbBh>-;+%>3b28,,22222228vbo$",
"<Wx8<<258835k3%@$=--:$X+=2ijMaNu9>;;>th-*@$%+-vd882<9222<22wzFX+",
"&mm822299taL>$-=$>i7iK%$+++$>a732>>---3=%*=-%-Pdy8,22,28,238CKX+",
"%JZ,<2<<5uP2+=-=2ii77i5+#*##Xo+$*=-===:==-::&=Lp82222<<2288dJJ.+",
"*!m<,,,2tDq@-=-57q3237jo#*=+O+. XO$*=-;---::=$iKy82222228wbP~*++",
"-Um9<88rD5@-==377132>7i--@OO;P2-%%$$$$%%==::-$=Kv999987dCJ~vo$>=",
"#9Ry29bJ;@-=$>i5>11>>7>>>@O*t~WUSBa73>:=$%:::-$iZZttybLN2;#+=><>",
"-%DBxZZ%@==@=b9<>>>2>33=*OyCEuyyhbJJJJLd==%-:-=%=>KRPB:+@$=-:>1>",
">$>DRP@%=%@%Jx9,222>33i$+J(m08882598ywhCh;-%--:=+%-=@+=---=*=>>>",
">>+:2-%=#@*Emr<2<<123a7+OJF022<<2<222293dd>--:>>:=%@X+>-:=>5-&->",
">=o=%--$*;CFr82222117M$$#CF822<<,<2222877aN-%>>1>>:=X%=%=-:Nt7-%",
"=%O%::*5BRbt<<222222yb+@*5Ut22<<2<,8<8,88wb2$:>1>-;&-<;**=ybhZB5",
"N>++%*=bWh9822222225b5+@-*hb82<<<<8,8,,229yv$->>>=+=kFx8>35225tB",
"Dt%O+o*>Eu8282<<;<25D>o+%%5bw822<<82222,289N%=>1:#-)Jbbbht32285t",
"tB%+::@;Z922<28<2<25Z=+@@*xr222288<8282228wvp$>:$;Ebvy98322<<>28",
"3S;%--%wCy82222<2285J*+@=>B5222222282222<28tP+-=2Taw8098922,<<<2",
"<wJ-%-%bJ92822<2288uR-++>b9w2,2222,82282<22dL%=+Sd2<,29822822,,<",
"29xU@&$:J0222282228uR2+@5775<<,,,22,2,8982wzz$=$Sy2>,22892228282",
"29tE3+$=b0922<22228tRu++t>>y2><<,2,22220989td$=%By2<<,,,88222222",
"28yJB$=$>ki3222<2wtLP:$+5:-a2<><<<<<<<<<2aMhb*-=7b52<<><2222222<",
"228bk$===tx322228tBR%-o@jtt72<<><<<<<<8,2tkB*%==7a721<<<<<2<22<<",
"<27D1$-:=-Svtw7w8bR=$@$+>M5321<<<2<<22<,27i%@--=-y72212252<<<88<",
"22tP3$:>:%%SbkNSP~7$*:>+=j21><2<<<<<<8,2ii>$>>1>$5h72222,2822<88",
"8w0!3$>>>>+::-*%%;>%>>:$;i71>121222>2229Bi>=>3>>>=Ka752>;,,92,<8",
"<8ZE%$>>>>&+%=&%*%=-:>>=:7d7311123>228tZB>:->>>>-=>jk7>22<<8,2,2",
"<tJ2$&:>>:%+=:-==%*==:-%@>3>37332755tbM>$$=>>1>>>:=->>>-958y9<,<",
"8vy*&>1>1:%%%&%$=aa<:-%+$$>7:>33iadbb7-+%$$==:--::-=>>>2>5Cy89<8",
"xS;&=>>>;%@=>-1SKMbdiji$%%%@%*=->>>>=+$$=>>75>>>-=>-->1>;;>72t75",
"L<1=>:=$@%--yZbi87223iM>@&*&><1>>-=-=$%>>1ijt77tK2$-==3-$=:2MahB",
"3>&:>%%1xbZJDh22212537M>#=&%>>>>>>>>>:>112152>>7i7>==+%@$+$%5LPb",
"$=-:$;RJbhyxt3222315t7M:++%=%*%;>>13>>jj7172;;>t7>3i>$@%%->=$%=*",
"+-&$=Ykw828t<;2>2232>7i$O=3bR~N$-:>>>>>3722>-<222iitb>=+%>>>>-+o",
"$&&<Ld8<<299<22<>>>>77-+O2^PvhJ3$:>>->>172<>125<2>337as5==>i71>$",
"+&<kw82<225222<;<1>7j:%++3Eww8yJ$=>>->>>2>>2522>>>123>3ij1->7i7=",
"O-1d<2<<2852<<><2225i=$++Jx82<8x7$>::i>>i22223222221>3577j>-:::$",
"$-398<,,889<8,,,<<2i3=+O+~t9822wN%->=k2*y8888288<2<2<<23273:=$::",
"&8k88<<8888<,,,<><3d>%+X%~y98289D=->$tu*0y00022,;<2><<>2>3>>-=-%",
"aYd28,,888<2,;2,1<7k>++XvZ88822iB>=@+5Z-0y82288,;<<;<<<23227j:%=",
"dC92<888<88<<;<213ii&OX%Qx822289v>>%+-Z,2y88,2822<<2<><<<2>7B>$$",
"kN82228<22882;,21wv3+X+6Et222989d;>=#*myy8<<,2282<<<,,,2>222B=$$",
"bb8822<<22828<;>37j&O+=LZw88998td=-&+-,Cy2<<222292<222<22213B-+$",
"vb98<2<<,28222<<2i3+++&Fx82288yxd==+O*,F82<82,,22222,,,,<225N2Xo",
"bZy<<<<<,282<<<<6v>OO%>K02<288wxk;=+O-FEy822,2222228822<<><5MhoX",
"uEy2<<<<2228<,,,ii:X+-vv3<<<<33dN1:++1vv8y8222<<22<88822<;<2Bb$X",
"*~x8<<<2,<888<2,d7%X-wS8<<<;<<<dS>;+O1<w,,y92<<<2<<<2288222hR2$o",
"O2Wy92<,2<8828y971X+iK3<<<<<<13NB1&@+&wSy,-882,<,22<222825hV*$-%",
"#+FRy822<<<8<,ybi: -Nv31<<<1<3d3:1%%&+-dWC0,822<,22<2,22ttR;$->;",
"-**uRu5222822<wb1%X3Da<<<<<37d1=-;%%&%+%,CWby82222,,2229MTP$->>>",
">*@+2Qn8288222vm1XX311>31<3dk3:::&@%++++O*2CEy8822,,87tJTi$&->2>",
">-*#O2~Cyty8wyFb-X=d>1>>1iap<:=&&+O@:>%X+.*#yEbyyyyykSTB$o&=>>11",
";--=@%;~)~EREPb>=$3Si3366>2>-@++OX%<i3<&O+O+#E)~QQWQ(B7++$==:=>>"
};
