/* XPM */
static char *_01e0ac530d24486de547eb53de38d15BsScecuDvuQoauz0[] = {
/* columns rows colors chars-per-pixel */
"64 64 151 2 ",
"   c #2E1A11",
".  c #331E13",
"X  c #362015",
"o  c #3B2216",
"O  c #3B241A",
"+  c #3F291E",
"@  c #432619",
"#  c #44291C",
"$  c #4B2B1C",
"%  c #512F1E",
"&  c #52301F",
"*  c #452D21",
"=  c #4D2F21",
"-  c #502F20",
";  c #4A3125",
":  c #4D3528",
">  c #543224",
",  c #5A3526",
"<  c #5E3827",
"1  c #533729",
"2  c #5A3728",
"3  c #55392B",
"4  c #5D3A2A",
"5  c #5C3F31",
"6  c #633826",
"7  c #633C2B",
"8  c #6A3E2C",
"9  c #703F2A",
"0  c #613F31",
"q  c #5E4132",
"w  c #67402F",
"e  c #6C412E",
"r  c #72422E",
"t  c #7A442E",
"y  c #644333",
"u  c #6D4432",
"i  c #664837",
"p  c #6E4936",
"a  c #654738",
"s  c #6D4738",
"d  c #664939",
"f  c #6B4B3B",
"g  c #724531",
"h  c #7B4731",
"j  c #754936",
"k  c #7A4A36",
"l  c #744D3A",
"z  c #7A4E3A",
"x  c #6F503E",
"c  c #74513F",
"v  c #7D513D",
"b  c #745240",
"n  c #7C5542",
"m  c #7E5845",
"M  c #7D5B4A",
"N  c #804730",
"B  c #844B33",
"V  c #8A4D34",
"C  c #834F39",
"Z  c #884F38",
"A  c #8D5037",
"S  c #81533D",
"D  c #8B533B",
"F  c #91553D",
"G  c #93583F",
"H  c #9A583E",
"J  c #835641",
"K  c #8B5641",
"L  c #845A45",
"P  c #8A5C46",
"I  c #855D4A",
"U  c #8A5E49",
"Y  c #905740",
"T  c #935B44",
"R  c #9A5D44",
"E  c #905E49",
"W  c #85604D",
"Q  c #8D614C",
"!  c #9C6047",
"~  c #92634D",
"^  c #9C644D",
"/  c #866352",
"(  c #8D6552",
")  c #8F6856",
"_  c #8E6B5A",
"`  c #926651",
"'  c #996651",
"]  c #956954",
"[  c #9B6B55",
"{  c #956E5B",
"}  c #9B6F59",
"|  c #9D705B",
" . c #A1674D",
".. c #A5694F",
"X. c #A36D54",
"o. c #A96E53",
"O. c #A16F58",
"+. c #A67057",
"@. c #AD7156",
"#. c #A1715C",
"$. c #A0735E",
"%. c #A4735C",
"&. c #A4725D",
"*. c #A3755F",
"=. c #A87059",
"-. c #AA7158",
";. c #AB735B",
":. c #A8745E",
">. c #AC755D",
",. c #AD765D",
"<. c #AC775F",
"1. c #AC785F",
"2. c #AF785E",
"3. c #B1765B",
"4. c #B2785E",
"5. c #B3795E",
"6. c #B4795E",
"7. c #9F7561",
"8. c #9D7563",
"9. c #A17762",
"0. c #A57560",
"q. c #A57661",
"w. c #A47761",
"e. c #A87660",
"r. c #A77861",
"t. c #A77962",
"y. c #A67863",
"u. c #AC7860",
"i. c #AE7861",
"p. c #AD7A62",
"a. c #AD7B65",
"s. c #AA7C67",
"d. c #A27B69",
"f. c #A47C69",
"g. c #A57E6B",
"h. c #AB7D69",
"j. c #AE7E68",
"k. c #B27B63",
"l. c #B37C64",
"z. c #B37F68",
"x. c #AE806B",
"c. c #AA826E",
"v. c #AF826D",
"b. c #B28069",
"n. c #B7826A",
"m. c #B1826C",
"M. c #B5846D",
"N. c #B7846C",
"B. c #B9836A",
"V. c #B8836B",
"C. c #BA846B",
/* pixels */
"o $ % @ . . @ = * * = 1 1 4 5 0 q 5 5 a a a f c b c b b c c m c c b x b x f b b f f a f f y y y 5 4 4 3 1 1 > - - * * @ # @ @ . ",
"6 F T R K E '  .E ' ) [ =.O.=.:.0.8.r.h.8.h.b.V.m.n.v.n.B.B.N.N.N.N.N.N.c.c.v.N.c.c.d.r.l.p.p.e.:.%.#.O.X.' X.^ ' R E E E U n - ",
"% h V F C Z Y Y K Y K T E '  . .[ ] X.+.| | 7.:.5.>.k.:.6.6.3.1.5.r.8.1.0.1.1.:.| %.| =.o.o.X.X.' ' ( U P U R R Y Y V Z b C 9 * ",
"# 9 N V h g C C C b n J P U U Q Q Q ' ` [ ] [ | | | | | | | | | | | | | | | | | } | ] ] ` ` ( U U P P K J J z b z Z B B j g 8 @ ",
"# 9 V V t u z z 9 J b J T P U U Q Q ~ ~ ] ] [ } } #.} | } } | } | | | | | | } } } ] ] ] ^ ~ Q Q U P L J J J b k l k k 9 N g 8 @ ",
"@ N V A N h C D Y K K T R ' ..' ] ' X.X.@.+.@.3.1.3.1.6.6.,.:.:.:.:.| w.5.5.:.:.u.| } } ] [ [  .^  . .R T T J K Z C C N B B 8 @ ",
"% A H K D J R R  .' ) O.} 0.#.0.0.r.5.p.k.b.n.B.V.V.C.N.N.B.B.B.N.m.N.N.V.V.N.N.m.v.g.r.r.p.:.:.:.:.O.} } [ ' E E R Y K K K b $ ",
"@ 9 6 > h Z A K Y 0 8 b J L J b J ] [ ] %.[ W ] } } ] ` W } 1.%.:.r.[ W ] ] ] | ( I ] %.[ [ | n b J n l f s 0 J Y C C h , 8 8 # ",
"        > 0 7 9 2 O + + * ; ; ; > i l i v f i i i f f i i i n x x m f d f f d d d q d m p p l 3 : ; ; * + + + ; 0 6 0 ,     .   ",
"  o . o 8 s s b 8 * + * * ; ; ; i W ~ Q ` Q i i i i i i i m c.( / _ W d d f f d i a W ) Q Q W d 1 ; ; * + + * 0 b z 9 0 O . .   ",
". $ $ o . . . . + + * ; 2 5 1 1 q q q q q y i f x x p i x x n i b d x f f x x x f i a q q q q 3 1 3 1 > ; * # . . .     . @ # . ",
". - - - * = = = > > > 2 0 0 0 5 q w i y i i i c n m x i c.( M i b b / { b c n n v x p a y i y y 0 0 0 4 2 2 > * @ - $ @ - = - . ",
"o - , - - - , , , , , 7 0 0 8 b p p l l x l c v m L n x x.Q m x M b / | b n m J m c c c l l f u 0 0 0 0 6 0 6 > - - - - - > - . ",
"o , , , , - , , 7 4 2 0 8 b 8 0 p l l c l c c n m m m b x x ] i M W c c c m m L m v n v v c f p s 0 s 0 0 0 6 2 , 6 - - > 2 > . ",
"O , 6 2 - , , 7 7 4 7 0 s 9 b b x z c v c z c m m P L L m Q x.p I ( m L L L L P P m v n v c c p s y u 0 0 0 7 6 - 6 , - 2 2 - o ",
"* 2 6 6 , , 7 7 7 7 8 0 s j s s x v v n v v n L P W P P m U ~ i M ] I I Q P W W I L m J m v v j j u s g 8 0 8 6 , 2 , , 2 6 , o ",
"$ 6 0 6 2 2 8 8 8 e 7 y j j j l v v S J n n L L U U U U U ~ x.e M ] I P I U U U U L L L J n v z j s s j e g e 8 6 6 6 6 7 7 , o ",
"@ 6 8 8 6 6 8 0 e e e u j l l v v n n L L L L U Q Q Q U U ~ x.c W ] U P U Q U ~ U U L L L n n v l j l j p g g e 7 y 8 6 8 8 6 o ",
"- 8 8 8 7 0 9 9 u u y u z z z v S J J L L L L ~ Q ~ Q n n c x.x Q ] x n M Q U ~ U U U P L J S S l z l j j g g 8 8 e 8 8 9 e 8 @ ",
"* 9 9 8 8 8 j 9 g g u g z v v S J J L L L L L Q ~ ~ U m B.b.~ z ( Q c.z.P U ~ ^ ~ E U U P L L S v l z z j j j t e e 8 6 8 e 8 @ ",
"> 9 8 9 8 8 9 j g g g j C S z S S L P L P L P ~ ] ~ U n b.b.x.n ( L x.b.P U ~ ~ ~ E P U P P J S v k z v h k j g r r e u e e e # ",
"- 9 s b 8 8 j 9 g g g l z z J S S S P P L J L ~ ~ ~ ~ n v v [ v ( x.n l L ~ ~ ~ ~ U U U P J J S b v v C z k k g r e e 7 e e 8 $ ",
"- 8 s 9 9 9 9 j g g g j S J J n L L P P L L P ~ ^ ~ ! P Q ] b.c Q  .U Q ~ ~ ~ ~ ~ E P U P L S L z v v v k k l g r e e 8 8 g 9 $ ",
"> 8 9 b 9 8 j 9 u j g z C z z J S D L P J J P ~ ~ ~ ~ P P x.b.n Q x.~ ~ ^ ~ ~ ~ ~ ~ U P L L L S z z v v z k h g r e e 7 e e e $ ",
"- 9 9 s u 8 g g g g g j J z J C J D L P L L Q ~ ~ ~ ~ ~ ~ O.b.c ~ x.~ ~ ~ ~ ~ ^ Q U P P P L L S v z v v z z j g r r r e e r e $ ",
"- 8 9 j 9 u g g g g j j C z J n L L L P P P P Q ^ ~ ~ Q ~ ~ b.z m x.~ U ~ ~ ~ ~ ~ P P Q L L S L v v z v z z h g r e r w w e e $ ",
"- 8 j 9 9 8 g g g g g j C J J z J D L P P P Q Q ~ ~ Q m n L b.n Q b.v z m Q ~ ~ ~ Q L P L L S S v v v C g z j u e e r e e r w $ ",
"> 8 l 8 8 8 g g g g j j z n C J L P P P P P P ~ ~ ~ L n b.b.] n Q Q x.b.m U ~ ~ Q Q L P L L S S v z z z j z h g r t e e e r e @ ",
"- 8 g 8 8 g 9 g g j g z C S J J L L L Q P Q T Q ^ ~ L m m.b.] c ~ ~ x.B.P U ~ ~ E P L P L L L S v z z k h k j h r r r e e r e $ ",
"- 9 g g 8 8 g g g g s j S z z n L D L P G Q Q Q ~ ~ Q n m L x.n x.] c n m Q ~ ~ Q P L P S L S S v l z z j k g g r e e w e e w $ ",
"- 8 g g u 8 g g g s g j z J z J L L P P Q Q Q Q ~ ~ ~ U ~ ] b.c m x.~ ~ ~ Q ~ Q ~ P L P L L L S v v v z j j g r r r e w e e e $ ",
"- 8 s 9 8 g g g g g g j J z C J D L L Q Q G Q Q ] ~ ~ Q ~ [ b.z Q  .~ ~ ~ ~ ~ ~ ~ P L P L L L S v z z z z z g r r r e e e r w $ ",
"& u e j r 8 r j r j r j C v v J J P P T P P P ~ ] ~ ~ Q Q X.b.c Q x.~ ~ ~ ~ ~ ~ ~ P P P P L L v v v v v z j r r p r i 9 e i 9 # ",
"$ 9 u e r r t t r e j j v v v J J J P P U P ~ ~ ~ ~ ~ Q Q ~ b.c Q  .~ P ~ ~ ~ ~ ~ P P P L L P v v v v k k j j r r r 9 9 w 9 w # ",
"o 9 e e u 9 t r u j g z v v v S J J P P U U U ~ ~ ~ ~ v m L 1.x Q x.x p m Q ~ ~ ~ Q P Q L P L J v v k v z j j r r r 8 w w r w # ",
"$ e j e r r j g e r g z B v v J K J P P U U ~ ~ ^ ~ L m b.b.{ m W ( x.b.P P Q Q ~ Q Q P P P L J J v v k k k j p p r e e w e e # ",
"o 9 u r e r r g u g j j v v v S J J P P P U U ~ ^ ~ P m m.x.] c ( Q x.N.U U ~ ~ ~ Q P P P L P L v v z k z z r r j r r e w r w # ",
"+ 9 g e r e j r r j u j B v v S J P L P Q U U ~ ~ ~ Q n v L %.v (  .n m m ~ ~ U ~ P P P L L D A J v z z z j j j r r r e 9 r 8 # ",
"+ e u r r r g g e j j j v v v v J J P P P P Q ~ ~ Q Q Q Q ] x.m ] x.~ ~ ~ ~ ~ Q ~ P P P L m P m J v v k j j j r r r r e e r 9 # ",
"@ e u r r 9 j e j r u j v v v S J J L P P P U ~ ~ ~ Q Q Q ] 1.c Q +.] ~ ~ ~ ~ Q ~ U L P D m L D A S v k j j j r p r e 8 e r 8 $ ",
"@ 9 r g e e r r g j e j v v v v S P P P P U U ~ ` ~ Q Q Q [ 1.c ] 1.~ ~ ~ ~ ~ Q Q U m P m D m m v S z z j j g j r r e e r e 9 # ",
"+ 9 g u e r r j e j p j v v v v v J L P U P P ~ ~ ~ ~ Q Q ] x.n ] +.~ Q ~ ~ ~ ~ ~ U L L L n D P L v v p k j j g r p e 8 e p 8 # ",
"# 9 e e e r r j j e u j v v v v J L L P P P P ~ ~ ~ Q L v L 8.n ~ [ m m m ~ Q Q ~ U L P L L L D S S z z z j g g r r e e e e 8 # ",
"$ 9 e u e g r g r e u j k v v v v K K L U P Q ~ ~ Q Q m v.1.{ n ~ U x.N.m U Q Q ~ U L L D m L L L S v z k j g r r w e e e e 8 # ",
"# 8 e w e 9 e e e e i j z z v n v J L P P P U ~ ~ Q Q L m.r.] n ( W b.b.m m Q Q Q U P L m D m D v S v z z g g e e e 8 w e w w # ",
"$ 8 w w 8 8 e e 8 w e j z j z z v n S L L L P ~ ~ Q Q m n n %.b ~ ] m m n P U Q Q L P m n n n n v v z k j g i 7 7 8 7 8 e w 6 # ",
"# 6 w 7 6 6 e w w w 8 p j p z z z v J L L L L Q Q Q Q U I Q | f Q ] Q W U U U W U L m n n n v v c z z j p e e 4 7 7 8 7 6 w 6 @ ",
"+ , 7 6 4 < 8 q 7 7 w a j p j l l v n n L m m Q U Q U I U ( 8.f W ] Q W U L L L L L m m v v v v z z c j p w y 4 6 6 < < 7 w & @ ",
"o < 6 < , 4 w < q 6 w w u u p l l l b n J n L I I P I I I W | c I ` W I P I L L L n n n v v l c z x j g u w w 4 4 < q & 4 , & o ",
"o & < < , < < , < < w w p p p p s b b n n n m L I I L J m W { f I ( I L m m m m J m n v c c l f p p u i w w 4 & , , > & % q & o ",
"o 1 1 & & , , 4 , & q q u y p p s j l b z b J L L L m b b b ] f M W b b b n m n m n c c c l s j p p i w q 4 4 : & < & & & 1 , o ",
"o & & 1 & & , & & q & w w w y y s f j f b l b J m m b b { ) M f m M / | b n n n m c c c l s p s u u i w w 4 , & & , & = > > & o ",
"o & & & $ $ & $ = = = q q q w q q 5 q f f s l b m n b b _ ( W d M m / | b c b b c f l f i y y y w i y q 4 , & * $ $ # # $ > ; X ",
"X & $ o o o O O + # * ; > q > : 3 3 5 q i i d f c l x x f d b a f f d f d f f f p i y y 5 y 3 3 1 : 3 3 3 * O X X X X X O $ # X ",
". X o + w j l l i * * * * ; ; ; d I U W ( I a d d f f f a M { ( ) } / a d f d d d i M ] W W I f : & ; * * + + q f j i y o . o   ",
". X X X & w < g & + + + ; ; ; ; 3 l s p b d a f f f f d a f M b b W f q d f f d d d d n a y s 1 : : ; # * + o & y 6 6 , X . X   ",
"- g g r B A A R F j C G L U U S P o.X...@.} ~ [ X.#.| [ ~ #.1.>.=.l.@.~ ^ +.+.| ' I X.%.X.^ X.P K P K S J C s n D S S k 7 g 8 $ ",
", D Y F K A R ! ! ] [ +.=.=.;.3.>.5.5.k.k.j.z.B.V.C.V.B.V.V.V.B.m.V.C.V.N.C.V.V.V.z.z.l.k.p.k.>.;.>.;.%.o.X...R T J K D K F z $ ",
"$ 9 Z Z h h C Z F G G ! ! ^ ^ ^ [ ' X.[ o.O.:.3.6.6.5.5.6.1.:.| :.1.>.:.3.1.5.1.i.%.=.O.[ [ ' '  ...^ ~ R R Y D D z C j V V 7 # ",
"% 8 h V g u z j z v v D P L P Q U Q Q ` ` ] [ X.+.| | | | | } | | } | } | } | | } ] [ [ ` ~ ~ U I U L J J J D k j l g j B h 6 # ",
"$ 8 B V N h Z C v v S D P P P ~ Q ~ ` ] ] ] | [ | +.| | | | | | | | | | | | | } } [ [ ' ' ~ ~ ~ E I I P S n J l j j j j V B 6 @ ",
"$ h Z Z C C R H F K T ! ^ ^  ...^ o.o.@.+.@.3.,.3.3.6.3.5.5.1.5.6.p.1.5.5.5.5.3.3.i.;.o.=.o.o.X...'  .E U T Y K K K J v D C w @ ",
", F Y T P P ^ ^ ~ ~ ` [ #.e.+.+.0.p.p.p.k.B.b.N.V.C.V.C.N.B.B.n.N.B.N.N.N.N.B.B.z.z.z.h.a.i.i.e.%.#.%.{ X.X.' ` ( Q W U R T v > ",
"o # @ # o o + # + * * 1 3 4 q 6 3 q y q y i c c c c c c b x b x b c x f f c c c f b a y y 0 0 5 5 5 3 2 1 : ; + @ # O @ @ @ @ o "
};
