/* XPM */
static char *c5c670a3df494ed3f45f0e24c3f25c3aI2I52KBx0cSeiWPf[] = {
/* columns rows colors chars-per-pixel */
"64 64 78 1 ",
"  c #452E1C",
". c #482F1D",
"X c #46311E",
"o c #4C321E",
"O c #52351F",
"+ c #4D3421",
"@ c #4F3925",
"# c #4F3A29",
"$ c #523621",
"% c #583721",
"& c #553923",
"* c #593A22",
"= c #5B3A22",
"- c #5A3A23",
"; c #5C3B23",
": c #583C23",
"> c #5B3C23",
", c #5B3D23",
"< c #5D3C23",
"1 c #5E3D23",
"2 c #583A25",
"3 c #583C24",
"4 c #5B3D24",
"5 c #5D3C24",
"6 c #5F3D24",
"7 c #5F3E24",
"8 c #5C3D26",
"9 c #553B28",
"0 c #533C2A",
"q c #553D29",
"w c #593D28",
"e c #5B3E29",
"r c #593E2A",
"t c #593F2B",
"y c #5B3F2B",
"u c #5C3F28",
"i c #603E25",
"p c #603F25",
"a c #603E26",
"s c #613F28",
"d c #5E4027",
"f c #57402E",
"g c #5B4029",
"h c #59402B",
"j c #5C4028",
"k c #5E412B",
"l c #5F432B",
"z c #58402D",
"x c #5F422D",
"c c #5C412E",
"v c #564332",
"b c #5B4431",
"n c #5D4532",
"m c #5C4B36",
"M c #574539",
"N c #584739",
"B c #634027",
"V c #624127",
"C c #634127",
"Z c #614228",
"A c #63432A",
"S c #62432C",
"D c #62432D",
"F c #62452C",
"G c #62452D",
"H c #61442E",
"J c #69462C",
"K c #67482F",
"L c #6A492F",
"P c #604530",
"I c #624631",
"U c #654933",
"Y c #6A4B35",
"T c #654B38",
"R c #6B4E3A",
"E c #6B5333",
"W c #5E4F43",
"Q c #605444",
/* pixels */
"4444>&+o>3&@o&o+$@++++$$$O8pAZa<aaV&<>&&*O*8r*&&+.&>ja><aaeaa74*",
">>&&HHx&@@&&gf@o+@00$$>eOO$<jj<<pC<<<a>>*$**7r&$+ $Ix&$&ip777777",
"<><&7x4ag&O@fv+X.+@2&$8ej$o$r7*<pp<>&V<**&&>4j4$++$ry$&4<777>>4j",
"<pp<7$x&j:&$@+  @9w9$&8r4%$O47<<<pp<><p**%2%44&>$+$w&$&&>>r74>47",
"4*pVV$&7>>rrg&oX9new&ea94>yy477<<pap*44&%**22sy$.$wr&&&&jOjj>&&j",
">>dZV*$&&&&>j&++9rr>e7*>r>7H$xx7><Va77p8>%>88HI0 2HH$&&&:jOO&rjO",
"&dZdZ7$$&&**&r$+$@&IH>&e>74HOV77<*Aa7p<<<%%22Hy%.$yy&&>9&grgg&O>",
"dZVVZF$7978&>nr+$$$rr>7r4&4HOVV7<aZaapp8><88i8w@.$&&ew&+oXoO$&:g",
"77Zjse&we89Uy>.+.%99&w777&7Z*7Va<<CCpspiO<*<8>2+o++>4&Oojjjdjddd",
"4Ve4xs>&8>7UU8+...9y$8r>>>&7*<Va<VsVJapi<p8FH&$. +rxjjo&:O:jjdVj",
"vq447&&y%92sww&..@#$%7r>&%*a8OsappaJaaa<*%>HI$%. $&rj4&&OOj:gdgv",
"vv47de>44>&eIIw+.@.&9rHmy7<<a<asp<aaaaa%*rx7sr%o.+$xz$&&:OO:Oggv",
"m4&7x4&98r2sIIr+.++yI%raraaVZ7$Zii<7aai<8eF7re$..oHUI&>&dO,O>djv",
"44&x47>>%wwryyy..+%>I8a8%$>7ZZ7%O<aV778*>a&78>$..$&jj444O,OV>>dj",
"x77j77>%&wYs2$# +$$>%DAsaO$&aZJ&O<O*&>&$$%rxy$$..&x&dZO,VOCOdd>j",
"&&ZZaa&22eIY2+$o$$$%8ssaa8O$<ee&J<<<**>&$$r>Hn$.$nR$gFCV7,OOOod:",
"odJddp*&&4jZsI$++$%essysaa<%O%%JHYF&d&:O$&2wrr+.@&&&&&i8<2***ar>",
"4ZZVaa>*>xz&yU%.+$$essysa<8<<*pVVZ74:>&&&Iy&Ts#++>&TI28ia%*$*e&&",
"ZZ7Z<>&&&Hxa>e+.o+O$&&ssaaaaaaa<dVZ&:g:O$92$Ts$.$&&qq2&4>*$*%&*F",
"ZZjjj>&*>r4er&  .o$O&&$7aaaa<*<pAZJjZ4:O&&2w9I.+$y>2>>w42%&&O<UZ",
"ZVddj4&&&4xx&+   $n$&I%%*O<<<OOdpZZjgj4o&&y&2%.$99w822&7*$&OOVZV",
"VVdZZj3&%yr4&+. &$w$%$%rZVVVOOOOp7ZZO43&&&3y8$.$$$22i2&4&OOO&OJA",
"VVVZ4:g&&>y&ny ++&2y2esyVVCCJ<Od&&77zo+&30QfL%.O>%rUi2%4*>&$OOLV",
"VVVl&o&:2>y+nq +$+$TDs8rVCCCCCZAa444x&+&3&t4Ws>$$$eYw22%&&**O$JZ",
"VVVZ&4f33q>o+@ .$$$yea><eppVCCCAZZja>o3@222Hw$$O$>HJ7>&&$$&$&OZA",
"ZZCAZj4$&&&4$+ +$$&Hapa<ssaadCCCAZx7O4j4w$eRe2.+.rrUq&&&yr$+O&AA",
"CCZCZj:o+&&r$@+ $&yZsae<ZZVVCdZCVZVaOLZ7rs>se8++o8r>$$@$44&$$*VZ",
"ZdZAd&&&&&7ry$X +$yZaaa<ZZ77CCZCVCZ7aUZ4ssr%se%++$9&&4$$+&&>r7dZ",
"ddAVOd>&$*8we&+ ++&rZZapsaV><ZCCCDJJpLs<2%8ssY>.+$>y&&&+o43g>>jd",
"ddZOVd&>&7>we9+ X+&y77a8a<<VZAJCLJJipApO$%%ss82+%*&>q&&&Oo@gjjdd",
"ZjOdC<>>88JZ&w+ ++&>HJ48paVVZCCJJJAOa*aO%%ssss%%2rr24&&&&Oo&O>dj",
"Ojj<<O&O*>IHw% .@&>&xI>7adVVAJJCaJ<<*%C<%2ssYs%O2%%w&3&33::3&>jj",
"33<<***O&*rH&$ o@$&&*&>aCVVCVJVVJspi<iii%&asas%.&$ys8%yy&8&$&$&>",
":>>V<<*&>U$$xm+o$$4yx7>aCppCVJJJJJi<OOOs>7ssar>$ysIyy-LY82>%>>&>",
"::><a*$*&rrr9bo.$$44x*&7CCCCJJJJJpOssO%p&a8is9$.$ssye-II82i%7x&y",
":>><<*&**>xxy$oo$&&&r744V<<JCJLLOiiBJCpO%>r2>9$++ysI%2ss82i8jZ4&",
"jj<>4&&O**7x>@oo$9x&q477OvNdJKL>*7Zjsa>*%%>w2M+.+yssyr%sZ7*pZDZ*",
"<jd>g&O&$&$&&++X+$r$344rdggdZZZ7$7a7aa<&$28is2++&&yw%%sss7*pZYZ7",
">>d:4&&&&Hq+fmoXo&rxr4r7adjddZd:>Z7477*$22i2wy$$$$wy22ssa<<aZVZ8",
"O&&&&&+$$n>+fg@Xorr77>474ZjjdKdO&744&7*O%82rss%$$$$srsss<a<ZZJ<O",
">&d&&&&&&&@@o@XX $xjar47<<dZFFOg>>>&&&O&O4778e%>y>8%wsiAaaaaJZ*7",
"d><O&&O&&&O&OooX +zj&7x&OOOZZjOg&>j434>O&>&3y7&.2y%2i88sa7aaH<47",
"<ddV&:::4&&&OXXX +++$&&$OOooOOOO4444>&4&$&&7y&&+9y%w8%2sa7eH>7eV",
"VVZAO&>>$o@@@f@X  o$4$&$OoOO>:@O&j4&*r4&&3&3>rr++&2IY%%w<s7&&aAZ",
"CsCJV*$$O&&&$09+ +&$b+&3OXoOKd>>&4>gd>4&&4&&&nn..+wsy%UU>$*eZsAJ",
"aCCCZ7O$O&@&$+#++3$+&&$&:oOold>O$4>g>g7*>&&&&$y+.+9r&$>9>777HJJs",
"CCaAAZO&$O&@@+  @+z&:&&$::OOldj7OOd4j>>447&&$++.+ry#$be8H7<7CJsJ",
"CaVCCa&$@&$&0+ ++9U+&$&$@OOgldZZr&dd>jd>&&&&$$+ +qy+%wweemIppCCa",
"sCsJJOOOOO+&@XXo&&$q$&&O&O&jZjZZJ*&x8>$&2>&$9$+..#.#++$siyyxaVVV",
"CsCJiOOOOO&+@@ oO@qxf$O&&O$4dddd&O$%&*&>8y>2ny2$+.qy9+wYsye7*apV",
"iCCsOiOOi<*&f0 X+o$fg&*&&OO&gdddO>eJZ>*>882ryyr$$###+$222ii8<ppV",
"CCCJOpOiiO**oX  +fq&o&&O&OO@dZZjZZZs8&*&7<w&y&$$$qr9$$2$82277<pV",
"iCCCOpOiOj&b@X+X+fmz++&&gOOggjdOUZZ7>%>4e8a>>9&$$yWs9$$$4&>4777d",
"CiCC<ppOOOj&@&# Xfb&o+&4O&&&jd>OjEE7<2%7s7sr7>&$$9y9%9$o$@O<*44d",
"pCCpOO<O>>&O@#+ +X&bx$xx&&@O&$eOjEEr78i8aAesrUI$$$$yyy2$&&$&*&47",
"CCCCp<1OO&@+@f# +&qUr9jfOOOOjjdgOjjd7p<<aa8eeYI+.rr%2y9+@h&**&47",
"7ZZZ<&&&&O&&+@  +$3r&44+&oo>j>::OOgj>dd<apaJ>Ix.+$f3Oe&o&j7jd4&*",
"*7Z7<>&dO&jH&++++&q4r&&&&&O&r>::O&::O>OO*aVTy$$+@0gg&@o#@xdd4ZZ7",
"77Vjd<>O*>rrb+ ++&x7Hg&3&O$$<>>:ggO:dOO<$<8r7r4$+0fg@o$$O4ljZaZZ",
"e73>>:<O<4&FHrXX+&q4j7&&O&:&>dd>$&j>O>dO$**4yre$+$3>j&$+o&&4ZJZZ",
"Z7*&ojOO444jxz+@rr4rxz&IO<**OC7OO:>>jOOO$H*47se& +$&&4&&OOOO$aZA",
"F7*O&3OO4&&&r&o&0gr&z4+&*O*p77,dddj>Od>>$**>wew$X+$jr9$&O$&&OO7A",
"Jj&&ggO@3&@g@$o&&0z$4$o&&%*pC7Od<Zd>:::O$*&>rer+++$e9Wb>adaa>$$V",
"Z7*O&&o$&&&fx+++4q$$@++&>**<CCVO<Vd>>>:>%2&&7r>+ +%jyy$87ZZZZd<<"
};
