/* XPM */
static char *_61ec3b7e0aa491eaa3278f9f3d3c0d7N3MOPBjxwedZSNsj[] = {
/* columns rows colors chars-per-pixel */
"64 64 193 2 ",
"   c #2D1D11",
".  c #311F12",
"X  c #342214",
"o  c #3B2616",
"O  c #3E2817",
"+  c #372618",
"@  c #3A2718",
"#  c #3E2919",
"$  c #402917",
"%  c #432C1A",
"&  c #492F1B",
"*  c #47301E",
"=  c #4C331E",
"-  c #51351F",
";  c #453222",
":  c #4D3521",
">  c #4E3926",
",  c #463729",
"<  c #493728",
"1  c #45392D",
"2  c #4D3C2B",
"3  c #523621",
"4  c #563A23",
"5  c #553922",
"6  c #573C23",
"7  c #503824",
"8  c #513925",
"9  c #503825",
"0  c #533924",
"q  c #533A26",
"w  c #523B27",
"e  c #543924",
"r  c #553A24",
"t  c #543B25",
"y  c #563B24",
"u  c #573B24",
"i  c #573B25",
"p  c #553B27",
"a  c #563B26",
"s  c #553C25",
"d  c #563C24",
"f  c #573C24",
"g  c #563C25",
"h  c #573C25",
"j  c #553C26",
"k  c #563C26",
"l  c #573D26",
"z  c #563D27",
"x  c #553A23",
"c  c #583B23",
"v  c #583C22",
"b  c #583C23",
"n  c #593C23",
"m  c #593D23",
"M  c #593C22",
"N  c #5A3D23",
"B  c #583C24",
"V  c #583D24",
"C  c #583C25",
"Z  c #583D25",
"A  c #593D25",
"S  c #593D24",
"D  c #5A3D24",
"F  c #5B3D24",
"G  c #593E25",
"H  c #5A3E25",
"J  c #5B3E25",
"K  c #5B3E24",
"L  c #583D26",
"P  c #593D27",
"I  c #583E26",
"U  c #593E26",
"Y  c #593F27",
"T  c #593F27",
"R  c #5A3E26",
"E  c #5B3F26",
"W  c #5B3F27",
"Q  c #5B3E27",
"!  c #5C3E25",
"~  c #5D3F26",
"^  c #5A3D24",
"/  c #513B28",
"(  c #553D28",
")  c #573E29",
"_  c #573F2B",
"`  c #513F2D",
"'  c #533D2A",
"]  c #593F28",
"[  c #583F29",
"{  c #583E29",
"}  c #5A3F28",
"|  c #5B3F29",
" . c #593F2A",
".. c #593E28",
"X. c #4E3F30",
"o. c #603F25",
"O. c #5C4027",
"+. c #5D4026",
"@. c #51402F",
"#. c #5A4028",
"$. c #5B4029",
"%. c #5B4129",
"&. c #5B4029",
"*. c #58402A",
"=. c #5A412A",
"-. c #5B422B",
";. c #5D4128",
":. c #5E4129",
">. c #5C412A",
",. c #5C422B",
"<. c #5D422B",
"1. c #5D432B",
"2. c #5E432B",
"3. c #5C432C",
"4. c #5E442D",
"5. c #5F442D",
"6. c #5D422A",
"7. c #4E4133",
"8. c #524334",
"9. c #5A4532",
"0. c #5C4632",
"q. c #5B4634",
"w. c #5B4633",
"e. c #5E4936",
"r. c #524739",
"t. c #56493C",
"y. c #5A4B3B",
"u. c #634226",
"i. c #684427",
"p. c #61462F",
"a. c #64452A",
"s. c #6A4629",
"d. c #65482F",
"f. c #6D4A2C",
"g. c #734D2D",
"h. c #784F2F",
"j. c #76502F",
"k. c #7A522F",
"l. c #614630",
"z. c #634A33",
"x. c #6D4D31",
"c. c #614D3B",
"v. c #734E31",
"b. c #66523E",
"n. c #6D543C",
"m. c #755132",
"M. c #7C5433",
"N. c #7E5836",
"B. c #77573A",
"V. c #7A5639",
"C. c #76593D",
"Z. c #7E5A3A",
"A. c #635141",
"S. c #6F5945",
"D. c #755A42",
"F. c #7C5D42",
"G. c #7E6043",
"H. c #7C634C",
"J. c #7A6550",
"K. c #7D6A55",
"L. c #815733",
"P. c #845A35",
"I. c #8A5D36",
"U. c #845C3A",
"Y. c #8A5E39",
"T. c #8C6037",
"R. c #87613E",
"E. c #8D623B",
"W. c #92653C",
"Q. c #96693E",
"!. c #98693F",
"~. c #836346",
"^. c #8D6542",
"/. c #81644B",
"(. c #896648",
"). c #86694E",
"_. c #8B6B4D",
"`. c #916641",
"'. c #946A43",
"]. c #9A6C43",
"[. c #926B48",
"{. c #9B6F49",
"}. c #9E7047",
"|. c #9D734A",
" X c #836B53",
".X c #826F5A",
"XX c #86715C",
"oX c #89735E",
"OX c #937256",
"+X c #90765D",
"@X c #A0734D",
"#X c #977B62",
"$X c #9B7E65",
/* pixels */
": t -.-.V -.t = # o O # = *.#.#.V P 4 k v k M 4 t ) t } } q.9._ t 2. .2.: > | ! M M M M M 4 M v V F F ! 1.;.% % & = 7 7 % % % + ",
"k ) 5 #.#.V #.-.t % # # - - #.v M t - 4 - 4 4 -.k X . : P 7 p t t P _ %   : a.| ! P P M v v M ! v V v ! 1.6 = % = t ;.2.t & 7 t ",
"w # = 4 4 4 V ;.-.% # = v - - #.P V 5 5 4 4 - 4 } :     / } P P } } X   + t l.| ! V V | ! V V ! ! V V ;.#.- % = V | ! V 2.k : % ",
"+ # 5 5 4 3 3 4 #.% % = - #.- - 5 5 3 3 - M M 4 t } > +   % 3 t 7 O & : % @ % 2.a.| P t 0.} V ;.O.! V a.- * # k | V V } } : @ @ ",
"X t 6 4 3 = = 3 - $ % & = - #.- 5 5 5 5 5 M 5 5 5 4 t } @ X % o o : 7 3 : : . % } l.7 > A.e.V 6 ! ;.p.t = = # -.6 #.+.#.3 = * % ",
") -.#.V V 4 3 3 - * & * = = > - 5 i i 5 5 M 5 5 4 4 M t /   @ @ : 3 3 3 3 = : @ . = p % 2 } a.k | p.% . : ; = -.#.6 #.- : = % * ",
"k : > @.4 V } V - - = = & = #.t P i P 4 5 5 5 5 4 4 4 4 P ; X 7 3 = 3 = 3 3 t _ * @ = X X : 5.5.5.%   X X X 5 k - - = & % * % k ",
"t 8.8.7.t k V V #.#.6 6 - # . X : } i 5 P P P 4 4 5 4 P / , < i 3 5 i 3 3 P t t p = & @ .     # % + # % : & * = = * & % # * 5 k ",
"> t.8.7./ t v M O.O.} t O . % : @ % : = 3 k V P c 5 i i X.1 X.3 i 3 5 i - e e i i P P | *   @ # > +.% = = = - = = = = 7 = o 6 #.",
"> t.r.8.w t M M O.- -.5 $ & } 0.:   X % % = 5 t i c i i e < : 3 3 3 3 3 - - : = = 3 i i = : : = z.+.= = - - = - - = = - 7 + > 6 ",
"5 2 8.2 t t M 4 - 6 O.V & 3 4 V } t # . X % = 3 - 5 a i i 9 e 3 3 3 3 3 - 3 : : = % . a p.a.5.p.4.- % : 7 : = - - = = - = * *.v ",
"6 5 : - 5 4 M - v v v #.: = 3 t 2.5.} % X O O ) 3 - P 3 a i 3 3 3 3 3 - - & & = & & _ s.a.V O.a.+.# & - - : 3 3 = - = = = * * #.",
"6 4 5 5 5 5 - 4 5 M M P P % = V o.| ;.a._ 3 % @ 3 i P P | 3 = 3 3 3 : - - & % = * P | | a.o.a.;.# * - - 3 3 = = 3 = 3 = = 7 O #.",
"6 6 6 6 5 5 M 4 5 M P ! | = % 2.F P | | o.l. .e P o.o.P 9 % % i 3 3 - 3 : 5 i = o. .t.t.V o.;.} O * 7 = = * = = = = 3 = 3 > # 6 ",
"6 v 4 - 5 M M 5 5 M V ! ;.p # 2.F P i > X._ o.| | o.9 @ . . @ 3 3 3 : = 5 a : & l.' y.y.P ! p.% *.3 - - # @.@.= - - = 3 - = # *.",
"4 6 6 6 M 5 P 5 M M P V | ;.@ 2.P a 2 t.r.X._ o.| | i % $ $ $ $ & e & = 4 i & F o._ ' ' V a.a.X 6 V 7 = @.t.t.= 3 - 3 - 3 = + *.",
"6 6 6 5 4 6 4 6 4 4 M P M | % ;.P 4 7.r.7.7.X.) o.z.a $ % 9 i 3 $ O o = #.5 4 a.| o.| o.|  .= % 7 6 v 7 : X.8.& 5 3 3 - = 3 % # ",
"t 5 6 6 6 4 - 4 M 4 4 M t P t ;.F t 8.7.X.7.X.} | 3 . = a a e e - O # 5 5.O.v O.o.P o.o.o.* & = = 6 3 v 3 % : = 3 3 - - - 3 7 @ ",
"t.8.5 6 v - v v M t V t r.2 t | V ! P w 2 w k ;.$ . & a a e 3 3 t * * #.1.O.O.v P F o.|  .: & & = v v 3 i 3 5 t i 5 : - 3 : 3 % ",
"2 8.5 k +.v - 4 4 4 V t 2 , : -.M ! a.;.) } -.@ % 3 P i e 3 3 3 5 k o -.a.O.O.#.| P | | | * & - - v 7 v 5 5 5 5 i i 3 - 3 3 3 ; ",
"@.-.+.+.i.+.- v M 4 4 M 8.<   } V V f.a.;.2.@ % 3 a 9 i 3 3 3 3 - k X X -.V V V P 5 } 2.e & - 3 - #.4 - 4 4 4 4 P P 5 = 3 3 = = ",
"v d.f.g.f.s.+.- 4 4 6 v V k X -.O.V g.x.a.: X ; : 3 = e 5 3 3 3 5 w + % = V ;.t ' t.y.) & & & e - - 6 - 5 5 4 v F o.F 5 3 = = = ",
"f.g.j.M.m.g.i.v 4 4 4 4 V @ X -.;.;.f.f.a.: X $ = 3 3 i 3 3 3 3 5 k O O # 3 t : > ` ; * & = - 3 v 6 - 6 5 5 = v o.g.s.M 3 - 3 : ",
"j.j.N.R.R.m.s.+.4 v V -.) X X t d.#.v.v.a.@ : % : e i i i i 3 7 5 k * o 7 ! | b.F.C.b.8.& = 3 3 - #.#.6 5 = = O.s.g.f.M - - 3 4 ",
"x.+.- i.m.j.x.u.#.O.a.a.=     = d.V u.s.x.= @ @ $ & e e = * = 3 - : O = 1.1.f.x.L././.S.3 & 3 3 4 4 5 P 4 = 6 a.s.h.f.4 i t 3 3 ",
"d.= % % = f.i.+.- v f.- O X X a.g.s.g.v.v.P $ $ $ & & % * = & & - = % * d.f.j.N.P.`./.S.L.o.& 3 i 5 5 5 - - #.f.M.V.x.= % X % ;.",
"U.= $ & j.R.j.f.i.f.M.i.$ X O.m.v.g.m.L.h.o.4 } & : 9  .o.e 9 3 v = O * m.j.L.I.I.L.I.I.U.h.e & 3 3 - 5 4 v i.f.f.o.- = = - ;.v.",
"V.* U.Q.'.'.W.U.Z.R.[.N.a.5 Z.V.M.M.M.U.U.g.o.o.s.A.c.c.l.o.P o.s.d.s.f.R.P.I.T.I.Y.I.I.U./.D.e 3 3 4 ! a.a.i.F & 5 o.o.4 ! a.g.",
"f.s.|.].}.].].Q.E.W.[.P.v V U.M.k.M.L.P.T.M.s.s.x.x.A._ n.o.o.o.f.h.o.L.R.E.E.Y.I.T.T.W.Y.XX/.x.@ _ o.x.s.+.- - +.f.g.i.i.f.m.N.",
"1.'.}.}.}.Q.!.}.Q.Q.].T.4 v.P.L.k.k.M.P.P.P.h.g.f.v.o.& m.m.f.f.g.M.h.P.E.E.W.T.W.Y.T.W.Y.U.L.U.* $ 3 i 6 s.m.g.g.M.M.m.m.M.M.U.",
"v '.Q.!.!.!.!.!.].}.}.|.v.v.N.M.M.M.P.P.P.T.P.M.h.h.V.o.h.m.v.v.h.h.h.I.T.`.T.T.Y.Y.W.Y.W.Y.Y.Y.U.& $ s.R.U.T.N.T.N.P.M.P.M.M.R.",
"6 |.Q.Q.!.Q.!.!.}.Q.Q.!.'.f.U.U.k.M.M.L.L.P.U.U.U.L.M.v.h.h.h.h.M.h.g.L.I.`.E.T.Y.Y.W.Y.Y.P.W.^.^.^.o.R.R.P.T.P.P.N.P.P.M.M.L.N.",
"m.!.Q.Q.Q.T.Q.Q.!.|.!.!.Q.b.Q.Q.I.h.M.L.L.Y.U.U.P.h.L.h.h.h.k.k.M.g.o.h.P.`.^.Y.P.E.E.W.Y.Y.W.Y.].P.Y.Y.Y.L.L.L.L.L.L.L.L.L.L.h.",
"Q.Q.Q.Q.Q.Q.Q.Q.!.!.!.|.Q.# Q.W.Y.L.U.U.Y.v.L.Y.L.L.k.h.h.L.P.k.g.f.h.o.h.U.^.P.L.E.E.W.W.Y.W.W.Y.P.Y.P.L.Y.Y.Y.Y.L.L.L.L.L.L.& ",
"[.Q.Q.W.T.Q.Q.Q.Q.!.!.!.R.+ N.W.Y.I.Y.U.E.h.s.M.L.L.h.h.h.h.g.g.f.h.o.h.o.U.W.(._.U.T.T.Y.W.T.W.o.Y.Y.P.Y.L.Y.Y.Y.Y.L.L.L.Y.- - ",
"Q.Q.Q.R.#XW.Q.Q.!.!.!.!.|.B.P.W.W.E.L.U.L.x.5 o.L.L.L.L.h.g.g.f.o.o.].{.h.Y.Y.U.U.I.Y.Y.T.Y.W.W.o.Y.Y.Y.Y.L.L.Y.Y.L.Y.Y.Y.Y.- W.",
"Q.Q.Q.R. XR.Q.Q.!.!.!.|.|.T.N.W.Y.Y.I.E.`.L.f.= 3 h.M.M.j.s.s.u.f.`.].].`.Y.P.I.I.I.I.Y.Y.E.^.U.L.Y.Y.L.Y.L.L.Y.P.P.L.Y.h.h.o.@X",
"|.Q.!.Q.Q.Q.Q.Q.!.!.!.!.Q.k.k.T.Y.I.I.I.Y.W.`.U.s.h.f.s.s.f.C.G.`.W.W.!.`.W.P.P.P.E.I.Y.^.U.M.o.U.Y.L.L.L.Y.L.Y.Y.P.Y.L.L.h.L.@X",
"Q.Q.Q.Q.Q.Q.Q.Q.|.Q.Q.T.N.k.j.N.T.I.T.T.Y.W.E.'.'.Y.L.s.O.n.XXoXU.T.T.T.W.`.L.P.I.E.^.E.L.h.Y.Y.U.U.Y.L.Y.L.Y.L.Y.L.Y.L.L.M.^.!.",
"Q.W.W.Q.Q.Q.Q.E.f.j.k.k.P.N.k.N.E.T.P.I.I.I.Y.E.E.`.Y.M.v J.J.oX XY.T.T.T.`.P.P.I.W.E.L.L.^.^.E.v.Y.Y.U.Y.Y.Y.Y.Y.Y.L.Y.h.L.`.W.",
"Q.Q.Q.Q.T.P.j.j.m.R.W.T.R.T.N.B.I.P.P.I.I.P.T.T.T.R.W.N.#.*.K. XM.I.T.T.T.W.T.U.E.M.M.T.Y.Y.L.v.h.Y.L.Y.Y.Y.Y.Y.Y.Y.L.L.L.L.!.!.",
"Q.W.Q.Q.N.j.g.T.E.T.T.T.T.N.m.m.H.H.N.P.I.I.I.T.I.T.E.W.u.a.R.R.I.Y.E.W.T.T.M.T.j.M.P.M.P.Y.Y.N.o.Y.Y.Y.L.Y.L.Y.Y.P.P.L.h.Y.!.Y.",
"Q.Q.Q.T.j.j.N.W.E.W.T.W.T.N.B.n.XXK.G.T.T.I.I.I.T.T.R.'.+.N.E.T.W.T.E.T.T.R.R.V.j.U.P.P.P.P.Y.U.o.Y.Y.Y.Y.Y.Y.L.Y.P.P.L.h.W.!.W.",
"Q.Q.|.!.f.x.j.T.T.T.T.W.E.N.v N.K.K.n.U.I.T.I.I.T.T.T.W.f.R.W.T.T.T.T.T.E.M.= M.T.I.P.P.L.P.Y.U.h.Y.Y.Y.Y.Y.Y.L.L.Y.P.L.L.!.].].",
"!.!.|.N.g.j.R.W.T.T.T.E.R.s.v.W.T.M.(.OXM.P.P.T.T.T.T.^.j.T.E.R.T.T.E.W.~.- #.^.R.I.P.I.L.P.U.U.h.Y.Y.Y.Y.Y.L.L.L.Y.Y.L.h.Y.@X{.",
"|.|.N.m.W.Q.W.T.T.T.T.T.N.M.R.T.R.N._.E.T.T.P.T.T.R.E.W.d.N.E.W.T.W.Q.N.O = m.^.T.L.P.P.U.T.E.E.L.Y.Y.Y.Y.Y.Y.Y.Y.L.Y.Y.h.Y.{.{.",
"R.- #.R.W.W.W.T.T.T.T.T.P.L.R.T.T.T.I.I.T.T.I.I.E.E.W.N.v g.T.'.W.E.R.f.- - '.W.I.P.L.I.P.P.U.P.L.L.h.L.V.L.Y.Y.Y.L.Y.Y.V.h.@X@X",
"j.M.Q.W.T.W.W.W.T.T.T.P.k.P.P.T.T.T.I.I.I.I.I.I.E.W.R.m.& g.M.Q.'.x.m.E.B.& R.^.E.U.M.P.P.M.k.L.L.Y.h.L.Y.h.o.h.Y.L.Y.Y.o.o.Y.Y.",
"R.Q.W.E.Y.P.E.Y.T.E.^.U.M.P.M.P.T.T.T.T.T.T.E.E.W.R.j.f.# g.M.R.L.L.L.I.U.3 o.L.Y.U.L.U.P.L.M.P.L.Y.Y.L.L.V.h.o.Y.L.v.o.o.| 3 ^.",
"N.'.'.Q.E.E.`.'.W.'.Y.f.P.L.I.L.k.I.T.T.P.T.E.E.x.z.n.S.0.- W.U.`.W.I.E.`.M.- a s.L.U.Y.U.P.P.I.Y.L.L.Y.U.L.Y.'.{.(./.U.U.l.$ U.",
"E.M.^.[.W.U.P.L.h.v.5 4 N.P.L.L.P.P.T.P.P.T.T.U.6 H..X XH.+.x.T.'.^.E.W.`.`.Y.h.g.h.o.3 h.U.P.P.Y.L.Y.L.L.Y.Y.!.'.(. XY.`.`.v.| ",
"^.3 s.M.L.g.o.o.o.o.s.o.O.R.I.I.P.P.I.T.P.N.I.j.d.oXK.).H.x.a.f.].Y.T.E.E.E.!.].U.L.F = 5 Y.L.L.L.Y.L.Y.U.v.'.W.'.`.Y.W.`.`.`.Y.",
"d.- g.s.g.o.o.f.i.f.G.Q.M.g.m.T.T.T.T.T.T.L.P.R.R.H.XX XG.Z.+.- '.E.Y.T.T.T.W.!.'.L.h.^.g.L.M.L.L.L.U.Y.v.% (.Y.W.!.!.W.W.W.W.!.",
"v.o.g.s.L.U.h.s.f.M.m.k.N.P.T.R.T.P.T.R.E.P.R.T.L.j.G.M.M.R.j.& ^.`.W.T.T.T.Y.!.].^.E.[.`.Y.I.U.V.L.U.Y.a - h.`.Y.W.W.Y.Y.Y.Y.!.",
"v.o.s.V.`.U.v.s.N.'.Z.K.H.N.T.N.T.P.T.W.f.a.T.U.L.M.M.M.M.P.R.+.U.`.T.Y.T.T.T.W.!.W.W.W.W.Q.`.W.`.Y.Y.Y.e o.h.`.].W.W.W.Y.Y.W.`.",
"f.g.Y.^.R.M.s.o.j.T.G.oX).T.I.P.I.T.R.'.s.O.P.L.L.L.L.L.P.M.M.j.f.`.W.T.Y.Y.W.E.E.(.+XE.W.W.W.W.`.{.Y.L.3 o.o.h.U.{.!.W.!.W.W.`.",
"P R.Y.U.Y.f.i.d.T.R.G.XX XP.P.k.L.T.E.`.j.j.I.L.L.L.L.L.L.L.M.N.P N.[.E.T.T.W.W.W.R.).Y.W.W.W.W.Q.'.[.h.5 V.v.s.o.o.'.{.[.[.[.L.",
"V.Y.N.M.V.u.f.^.T.E.T.N.L.T.T.P.I.T.W.P.f.M.L.L.L.P.P.L.L.L.L.P.x.$ Z.E.T.T.T.I.I.`.W.W.W.T.Y.`.].[.s.& F M.v.v.h.o.o.v.g.f.o.o.",
"Y.U.L.U.a.% R.E.I.E.E.T.T.P.T.P.P.E.W.m.N.L.L.L.L.P.P.L.L.L.k.M.N.$ u.'.W.E.T.W.E.W.Q.Q.W.L.V.U.U.% % $ o.M.h.h.h.v.o.o.o.f.o.o.",
"R.Y.U.U.k.o.M.R.E.E.T.I.I.T.T.T.Y.E.E.h.L.L.L.P.L.I.L.I.L.L.L.L.U.V f.`.E.W.W.T.W.'.Y.N.F g.M.f.v.5 5 & x.v.h.h.h.f.h.h.o.v.g.h.",
"V.M.M.h.f.N.M.E.T.T.I.T.I.I.T.T.E.`.P.M.L.P.L.L.L.P.I.L.L.L.L.L.P.U.f.E.'.[.'.'.U.f.a.V.^.`.W.W.[.`.U.o.h.M.h.v.g.v.L.o.o.h.o.& ",
"V.v.s.g.i.j.R.W.E.T.P.P.I.T.T.T.E.^.= P.P.L.U.L.P.I.L.k.L.L.L.L.P.P.N.d.M.E.U.6 5 U.W.E.I.Y.E.T.Y.W.^.`.o.v.h.h.h.h.M.h.h.h.o.o.",
"d.u.u.a.+.d.OX$X^.R.R.T.T.T.T.T.[.U.& U.P.U.U.U.L.U.L.L.L.U.L.L.P.P.T.= v M.f.s.E.E.I.I.I.I.I.I.P.Y.Y.`.Y.o.o.h.h.h.L.h.o.i x.o.",
"o.M.U.U.m.+.C.H.v.R.^.W.E.E.E.W.E.! & d.v.v.d.s.V.L.I.I.Y.L.L.N.P.P.P.O.- x.U.E.E.I.I.P.I.I.I.P.P.I.Y.E.`.L.g.h.h.L.h.o.- i x.a "
};
